<?xml version="1.0" encoding="UTF-8"?> <svg xmlns="http://www.w3.org/2000/svg" width="67" height="26" viewBox="0 0 67 26" fill="none"> <path d="M0.620455 10.5625V0H11.9955V2.55568H3.87046V4.01818H11.6261V6.55909H3.87046V8.00682H11.9955V10.5625H0.620455Z" fill="white"></path> <path d="M14.7285 0.0147725H17.9785V3.70796H19.6774L23.3558 0.0147725H27.8319L22.5581 5.0375L28.5115 10.5477H23.799L19.6774 6.44091H17.9785V10.5625H14.7285V0.0147725Z" fill="white"></path> <path d="M34.8131 0.0147725H40.3972L45.6267 10.5625H41.8301L40.8256 8.80455H34.3847L33.3801 10.5625H29.5835L34.8131 0.0147725ZM37.8563 2.39318H37.354L35.596 6.07159H39.5995L37.8563 2.39318Z" fill="white"></path> <path d="M47.5238 2.73295V0H60.0953V2.73295H55.4419V10.5625H52.1919V2.73295H47.5238Z" fill="white"></path> <path d="M3.66364 14.7875L7.65227 22.558H7.94773L11.9364 14.7875H15.6L10.267 25.3352H5.33296L0 14.7875H3.66364Z" fill="white"></path> <path d="M16.7853 25.35V14.8023H20.0353V25.35H16.7853Z" fill="white"></path> <path d="M21.9369 25.3205V14.7727H31.0369C32.8884 14.7727 34.1097 15.142 34.7006 15.8807C35.2521 16.5701 35.5278 17.9636 35.5278 20.0614C35.5278 22.1492 35.257 23.533 34.7153 24.2125C34.1244 24.9511 32.8983 25.3205 31.0369 25.3205H21.9369ZM25.1869 22.5875H30.4903C31.1896 22.5875 31.6623 22.4102 31.9085 22.0557C32.1547 21.7011 32.2778 21.0364 32.2778 20.0614C32.2778 19.0765 32.1547 18.4068 31.9085 18.0523C31.6623 17.6879 31.1896 17.5057 30.4903 17.5057H25.1869V22.5875Z" fill="white"></path> <path d="M38.4611 25.3352V14.7727H49.8361V17.3284H41.7111V18.7909H49.4668V21.3318H41.7111V22.7795H49.8361V25.3352H38.4611Z" fill="white"></path> <path d="M66.6772 20.0614C66.6772 22.6318 66.3669 24.1682 65.7465 24.6705C65.0768 25.2121 63.0579 25.483 59.6897 25.483C57.2276 25.483 55.6124 25.3943 54.8442 25.2171C53.8791 24.9905 53.2685 24.4981 53.0124 23.7398C52.8154 23.1587 52.7169 21.9326 52.7169 20.0614C52.7169 17.4909 53.0222 15.9545 53.6329 15.4523C54.3026 14.9008 56.3215 14.625 59.6897 14.625C63.048 14.625 65.062 14.8958 65.7317 15.4375C66.362 15.9496 66.6772 17.4909 66.6772 20.0614ZM55.9669 20.0614C55.9669 21.4106 56.1196 22.1985 56.4249 22.425C56.74 22.6417 57.8283 22.75 59.6897 22.75C61.5609 22.75 62.6491 22.6417 62.9544 22.425C63.2696 22.1985 63.4272 21.4106 63.4272 20.0614C63.4272 18.7023 63.2696 17.9144 62.9544 17.6977C62.6491 17.4712 61.5658 17.358 59.7044 17.358C57.8332 17.358 56.74 17.4712 56.4249 17.6977C56.1196 17.9144 55.9669 18.7023 55.9669 20.0614Z" fill="white"></path> </svg> 