<?xml version="1.0" standalone="no"?>
<!DOCTYPE svg PUBLIC "-//W3C//DTD SVG 20010904//EN"
 "http://www.w3.org/TR/2001/REC-SVG-20010904/DTD/svg10.dtd">
<svg version="1.0" xmlns="http://www.w3.org/2000/svg"
 width="799.000000pt" height="799.000000pt" viewBox="0 0 799.000000 799.000000"
 preserveAspectRatio="xMidYMid meet">

<g transform="translate(0.000000,799.000000) scale(0.100000,-0.100000)"
fill="#000000" stroke="none">
<path d="M3695 7980 c-782 -69 -1479 -330 -2088 -783 -322 -239 -649 -576
-881 -906 -387 -552 -616 -1159 -703 -1861 -25 -204 -25 -666 0 -870 98 -794
376 -1462 864 -2076 112 -140 457 -485 597 -597 614 -488 1282 -766 2076 -864
204 -25 666 -25 870 0 794 98 1462 376 2076 864 140 112 485 457 597 597 488
614 766 1282 864 2076 25 204 25 666 0 870 -98 794 -376 1462 -864 2076 -112
140 -457 485 -597 597 -612 486 -1287 768 -2071 863 -152 18 -594 27 -740 14z
m285 -1540 c607 -45 1148 -256 1498 -585 l77 -72 160 -6 c345 -13 611 -119
834 -333 242 -230 397 -547 470 -960 102 -572 -7 -1255 -270 -1699 -134 -226
-296 -361 -477 -396 -91 -17 -265 -6 -382 24 -53 14 -147 46 -210 72 -63 25
-123 49 -132 52 -10 3 -39 -12 -75 -40 -359 -275 -818 -453 -1351 -524 -158
-20 -589 -23 -737 -5 -243 31 -516 91 -695 154 -113 40 -318 131 -404 180 -38
21 -71 36 -74 34 -3 -3 2 -78 9 -166 8 -88 12 -160 10 -160 -21 0 -224 173
-347 295 -156 155 -222 238 -285 359 l-37 70 -37 -118 c-21 -65 -41 -114 -45
-109 -26 27 -136 208 -183 300 -73 143 -109 235 -143 368 -53 205 -33 489 51
750 29 88 128 302 178 380 118 189 318 393 443 452 30 15 31 18 37 97 7 94 28
179 63 255 13 30 23 56 20 58 -4 4 -110 -56 -173 -99 -24 -16 -43 -27 -43 -24
0 21 80 226 111 284 43 81 116 180 154 210 14 11 25 22 25 25 0 10 -159 -41
-225 -71 -37 -18 -69 -32 -71 -32 -5 0 51 94 95 159 226 331 643 598 1132 725
211 55 365 80 604 99 94 8 300 6 425 -3z"/>
<path d="M2686 5869 c145 -152 245 -313 304 -486 43 -131 41 -137 -32 -65 -78
75 -104 96 -198 159 -67 45 -279 163 -292 163 -3 0 27 -33 66 -73 98 -101 171
-231 192 -341 l7 -39 -47 44 c-62 59 -157 115 -235 139 -82 26 -231 43 -300
34 l-54 -7 69 -22 c93 -29 128 -49 185 -102 l49 -46 -43 -27 c-97 -62 -147
-159 -154 -305 -5 -118 0 -125 68 -87 30 16 75 38 102 47 47 18 56 28 36 41
-24 15 -51 95 -44 133 6 33 43 101 56 101 3 0 5 -22 5 -48 0 -58 26 -108 74
-139 30 -21 44 -23 175 -23 152 0 253 -18 335 -60 l41 -21 52 25 c107 50 163
61 307 60 105 -1 152 -6 213 -22 212 -58 449 -203 649 -398 l77 -75 39 20 c92
47 193 200 229 346 10 39 18 71 19 73 1 2 44 -10 96 -26 183 -59 334 -66 450
-22 32 12 60 24 62 28 2 4 -31 8 -74 9 -97 3 -212 38 -297 90 -92 56 -174 128
-306 268 -217 230 -333 293 -484 266 -76 -14 -203 -77 -281 -140 -34 -28 -64
-51 -66 -51 -7 0 4 69 21 130 17 63 40 105 97 174 30 36 35 47 21 43 -11 -3
-45 -12 -75 -21 -92 -26 -210 -114 -275 -206 -17 -25 -17 -24 -12 45 11 147
84 307 195 426 66 72 53 73 -67 6 -94 -53 -203 -154 -269 -250 -50 -73 -133
-231 -145 -278 -6 -21 -12 -15 -52 56 -117 204 -294 378 -510 500 l-50 29 71
-75z m1677 -740 c55 -67 -23 -165 -101 -125 -51 26 -59 90 -16 133 21 21 32
24 62 19 20 -3 45 -15 55 -27z m-1720 -10 c17 -24 18 -30 6 -55 -19 -40 -79
-47 -103 -12 -21 30 -20 40 5 72 27 34 64 32 92 -5z m1433 -46 c-1 -57 4 -76
27 -116 39 -67 94 -100 171 -105 41 -3 74 1 99 11 46 20 47 8 1 -42 -71 -79
-201 -95 -286 -35 -107 75 -123 235 -35 332 11 12 21 22 22 22 1 0 1 -30 1
-67z"/>
<path d="M5453 5563 c-24 -2 -43 -5 -43 -6 0 -2 28 -32 63 -67 174 -180 268
-516 268 -960 0 -290 -34 -509 -112 -738 -54 -154 -87 -226 -154 -329 -54 -82
-168 -213 -187 -213 -4 0 -8 13 -8 29 0 44 -37 157 -81 245 -80 161 -202 315
-349 442 -76 65 -110 86 -83 52 19 -24 92 -224 117 -319 13 -51 30 -130 37
-174 15 -93 18 -343 5 -430 l-9 -60 -27 111 c-50 202 -152 375 -314 534 -42
41 -76 72 -76 69 0 -3 13 -41 29 -86 48 -131 64 -231 58 -357 -3 -61 -12 -131
-19 -156 l-14 -45 -28 80 c-77 217 -195 383 -375 527 -40 32 -75 57 -77 56 -1
-2 13 -43 32 -91 46 -113 80 -249 93 -370 12 -107 15 -234 5 -224 -4 4 -16 33
-26 64 -51 152 -162 338 -291 484 -138 157 -354 321 -612 464 -124 68 -155 94
-155 126 0 25 56 86 138 151 129 103 151 164 82 229 -88 84 -374 126 -487 72
-46 -22 -66 -54 -65 -108 2 -58 25 -111 101 -225 87 -132 82 -155 -42 -190
-222 -63 -271 -84 -402 -167 -88 -57 -246 -215 -309 -310 -98 -149 -190 -348
-247 -534 l-22 -74 -10 45 c-17 81 -13 395 6 500 23 125 86 311 141 416 24 46
41 84 38 84 -11 0 -101 -56 -167 -105 -69 -51 -245 -227 -245 -246 0 -5 -4 -9
-8 -9 -11 0 3 148 22 237 42 199 136 380 281 547 68 78 68 78 29 58 -204 -104
-413 -371 -531 -677 -126 -324 -120 -705 13 -916 l27 -43 17 84 c22 108 48
173 94 241 43 64 62 89 67 89 2 0 4 -53 5 -118 1 -198 36 -342 122 -509 54
-107 148 -242 226 -328 l55 -60 1 90 c0 76 14 164 35 223 3 8 32 -8 84 -47
187 -139 460 -269 727 -346 114 -33 349 -80 484 -97 158 -20 594 -16 745 6
357 52 638 138 905 278 335 175 587 407 767 706 l62 103 26 -35 c14 -19 35
-60 46 -92 38 -107 11 -218 -83 -342 -27 -35 -48 -64 -48 -66 0 -6 109 14 147
28 78 27 158 90 226 176 l28 35 -4 -81 c-3 -63 -10 -94 -30 -137 -26 -51 -88
-120 -132 -145 -34 -19 -6 -27 94 -27 89 0 102 3 162 32 304 150 531 691 555
1323 22 559 -129 1041 -412 1324 -137 138 -297 227 -497 277 -65 17 -120 22
-262 24 -99 1 -199 1 -222 -2z m-2398 -1588 c139 -36 269 -117 395 -244 306
-311 419 -748 255 -987 -57 -82 -144 -133 -230 -133 -214 -2 -503 206 -696
499 -38 58 -75 114 -82 124 -12 17 -13 10 -6 -50 19 -158 63 -297 135 -431 24
-46 41 -83 36 -83 -12 0 -113 70 -170 118 -66 56 -162 183 -207 273 -63 124
-88 227 -89 369 -1 107 2 135 22 193 43 125 134 230 261 305 99 58 256 78 376
47z"/>
</g>
</svg>
