<?xml version="1.0" encoding="UTF-8"?>
<svg id="_Слой_1" data-name="Слой 1" xmlns="http://www.w3.org/2000/svg" viewBox="0 0 798.15 798.19">
  <defs>
    <style>
      .cls-1 {
        fill: #fff;
        stroke-width: 0px;
      }
    </style>
  </defs>
  <path class="cls-1" d="M369.08.62c-78.2,6.9-147.9,33-208.8,78.3-32.2,23.9-64.9,57.6-88.1,90.6C33.48,224.72,10.58,285.42,1.88,355.62c-2.5,20.4-2.5,66.6,0,87,9.8,79.4,37.6,146.2,86.4,207.6,11.2,14,45.7,48.5,59.7,59.7,61.4,48.8,128.2,76.6,207.6,86.4,20.4,2.5,66.6,2.5,87,0,79.4-9.8,146.2-37.6,207.6-86.4,14-11.2,48.5-45.7,59.7-59.7,48.8-61.4,76.6-128.2,86.4-207.6,2.5-20.4,2.5-66.6,0-87-9.8-79.4-37.6-146.2-86.4-207.6-11.2-14-45.7-48.5-59.7-59.7C588.98,39.72,521.48,11.52,443.08,2.02c-15.2-1.8-59.4-2.7-74-1.4ZM397.58,154.62c60.7,4.5,114.8,25.6,149.8,58.5l7.7,7.2,16,.6c34.5,1.3,61.1,11.9,83.4,33.3,24.2,23,39.7,54.7,47,96,10.2,57.2-.7,125.5-27,169.9-13.4,22.6-29.6,36.1-47.7,39.6-9.1,1.7-26.5.6-38.2-2.4-5.3-1.4-14.7-4.6-21-7.2-6.3-2.5-12.3-4.9-13.2-5.2-1-.3-3.9,1.2-7.5,4-35.9,27.5-81.8,45.3-135.1,52.4-15.8,2-58.9,2.3-73.7.5-24.3-3.1-51.6-9.1-69.5-15.4-11.3-4-31.8-13.1-40.4-18-3.8-2.1-7.1-3.6-7.4-3.4-.3.3.2,7.8.9,16.6.8,8.8,1.2,16,1,16-2.1,0-22.4-17.3-34.7-29.5-15.6-15.5-22.2-23.8-28.5-35.9l-3.7-7-3.7,11.8c-2.1,6.5-4.1,11.4-4.5,10.9-2.6-2.7-13.6-20.8-18.3-30-7.3-14.3-10.9-23.5-14.3-36.8-5.3-20.5-3.3-48.9,5.1-75,2.9-8.8,12.8-30.2,17.8-38,11.8-18.9,31.8-39.3,44.3-45.2,3-1.5,3.1-1.8,3.7-9.7.7-9.4,2.8-17.9,6.3-25.5,1.3-3,2.3-5.6,2-5.8-.4-.4-11,5.6-17.3,9.9-2.4,1.6-4.3,2.7-4.3,2.4,0-2.1,8-22.6,11.1-28.4,4.3-8.1,11.6-18,15.4-21,1.4-1.1,2.5-2.2,2.5-2.5,0-1-15.9,4.1-22.5,7.1-3.7,1.8-6.9,3.2-7.1,3.2-.5,0,5.1-9.4,9.5-15.9,22.6-33.1,64.3-59.8,113.2-72.5,21.1-5.5,36.5-8,60.4-9.9,9.4-.8,30-.6,42.5.3Z"/>
  <path class="cls-1" d="M268.18,211.72c14.5,15.2,24.5,31.3,30.4,48.6,4.3,13.1,4.1,13.7-3.2,6.5-7.8-7.5-10.4-9.6-19.8-15.9-6.7-4.5-27.9-16.3-29.2-16.3-.3,0,2.7,3.3,6.6,7.3,9.8,10.1,17.1,23.1,19.2,34.1l.7,3.9-4.7-4.4c-6.2-5.9-15.7-11.5-23.5-13.9-8.2-2.6-23.1-4.3-30-3.4l-5.4.7,6.9,2.2c9.3,2.9,12.8,4.9,18.5,10.2l4.9,4.6-4.3,2.7c-9.7,6.2-14.7,15.9-15.4,30.5-.5,11.8,0,12.5,6.8,8.7,3-1.6,7.5-3.8,10.2-4.7,4.7-1.8,5.6-2.8,3.6-4.1-2.4-1.5-5.1-9.5-4.4-13.3.6-3.3,4.3-10.1,5.6-10.1.3,0,.5,2.2.5,4.8,0,5.8,2.6,10.8,7.4,13.9,3,2.1,4.4,2.3,17.5,2.3,15.2,0,25.3,1.8,33.5,6l4.1,2.1,5.2-2.5c10.7-5,16.3-6.1,30.7-6,10.5.1,15.2.6,21.3,2.2,21.2,5.8,44.9,20.3,64.9,39.8l7.7,7.5,3.9-2c9.2-4.7,19.3-20,22.9-34.6,1-3.9,1.8-7.1,1.9-7.3s4.4,1,9.6,2.6c18.3,5.9,33.4,6.6,45,2.2,3.2-1.2,6-2.4,6.2-2.8s-3.1-.8-7.4-.9c-9.7-.3-21.2-3.8-29.7-9-9.2-5.6-17.4-12.8-30.6-26.8-21.7-23-33.3-29.3-48.4-26.6-7.6,1.4-20.3,7.7-28.1,14-3.4,2.8-6.4,5.1-6.6,5.1-.7,0,.4-6.9,2.1-13,1.7-6.3,4-10.5,9.7-17.4,3-3.6,3.5-4.7,2.1-4.3-1.1.3-4.5,1.2-7.5,2.1-9.2,2.6-21,11.4-27.5,20.6-1.7,2.5-1.7,2.4-1.2-4.5,1.1-14.7,8.4-30.7,19.5-42.6,6.6-7.2,5.3-7.3-6.7-.6-9.4,5.3-20.3,15.4-26.9,25-5,7.3-13.3,23.1-14.5,27.8-.6,2.1-1.2,1.5-5.2-5.6-11.7-20.4-29.4-37.8-51-50l-5-2.9,7.1,7.5ZM435.88,285.72c5.5,6.7-2.3,16.5-10.1,12.5-5.1-2.6-5.9-9-1.6-13.3,2.1-2.1,3.2-2.4,6.2-1.9,2,.3,4.5,1.5,5.5,2.7ZM263.88,286.72c1.7,2.4,1.8,3,.6,5.5-1.9,4-7.9,4.7-10.3,1.2-2.1-3-2-4,.5-7.2,2.7-3.4,6.4-3.2,9.2.5ZM407.18,291.32c-.1,5.7.4,7.6,2.7,11.6,3.9,6.7,9.4,10,17.1,10.5,4.1.3,7.4-.1,9.9-1.1,4.6-2,4.7-.8.1,4.2-7.1,7.9-20.1,9.5-28.6,3.5-10.7-7.5-12.3-23.5-3.5-33.2,1.1-1.2,2.1-2.2,2.2-2.2s.1,3,.1,6.7Z"/>
  <path class="cls-1" d="M544.88,242.32c-2.4.2-4.3.5-4.3.6,0,.2,2.8,3.2,6.3,6.7,17.4,18,26.8,51.6,26.8,96,0,29-3.4,50.9-11.2,73.8-5.4,15.4-8.7,22.6-15.4,32.9-5.4,8.2-16.8,21.3-18.7,21.3-.4,0-.8-1.3-.8-2.9,0-4.4-3.7-15.7-8.1-24.5-8-16.1-20.2-31.5-34.9-44.2-7.6-6.5-11-8.6-8.3-5.2,1.9,2.4,9.2,22.4,11.7,31.9,1.3,5.1,3,13,3.7,17.4,1.5,9.3,1.8,34.3.5,43l-.9,6-2.7-11.1c-5-20.2-15.2-37.5-31.4-53.4-4.2-4.1-7.6-7.2-7.6-6.9s1.3,4.1,2.9,8.6c4.8,13.1,6.4,23.1,5.8,35.7-.3,6.1-1.2,13.1-1.9,15.6l-1.4,4.5-2.8-8c-7.7-21.7-19.5-38.3-37.5-52.7-4-3.2-7.5-5.7-7.7-5.6-.1.2,1.3,4.3,3.2,9.1,4.6,11.3,8,24.9,9.3,37,1.2,10.7,1.5,23.4.5,22.4-.4-.4-1.6-3.3-2.6-6.4-5.1-15.2-16.2-33.8-29.1-48.4-13.8-15.7-35.4-32.1-61.2-46.4-12.4-6.8-15.5-9.4-15.5-12.6,0-2.5,5.6-8.6,13.8-15.1,12.9-10.3,15.1-16.4,8.2-22.9-8.8-8.4-37.4-12.6-48.7-7.2-4.6,2.2-6.6,5.4-6.5,10.8.2,5.8,2.5,11.1,10.1,22.5,8.7,13.2,8.2,15.5-4.2,19-22.2,6.3-27.1,8.4-40.2,16.7-8.8,5.7-24.6,21.5-30.9,31-9.8,14.9-19,34.8-24.7,53.4l-2.2,7.4-1-4.5c-1.7-8.1-1.3-39.5.6-50,2.3-12.5,8.6-31.1,14.1-41.6,2.4-4.6,4.1-8.4,3.8-8.4-1.1,0-10.1,5.6-16.7,10.5-6.9,5.1-24.5,22.7-24.5,24.6,0,.5-.4.9-.8.9-1.1,0,.3-14.8,2.2-23.7,4.2-19.9,13.6-38,28.1-54.7q6.8-7.8,2.9-5.8c-20.4,10.4-41.3,37.1-53.1,67.7-12.6,32.4-12,70.5,1.3,91.6l2.7,4.3,1.7-8.4c2.2-10.8,4.8-17.3,9.4-24.1,4.3-6.4,6.2-8.9,6.7-8.9.2,0,.4,5.3.5,11.8.1,19.8,3.6,34.2,12.2,50.9,5.4,10.7,14.8,24.2,22.6,32.8l5.5,6,.1-9c0-7.6,1.4-16.4,3.5-22.3.3-.8,3.2.8,8.4,4.7,18.7,13.9,46,26.9,72.7,34.6,11.4,3.3,34.9,8,48.4,9.7,15.8,2,59.4,1.6,74.5-.6,35.7-5.2,63.8-13.8,90.5-27.8,33.5-17.5,58.7-40.7,76.7-70.6l6.2-10.3,2.6,3.5c1.4,1.9,3.5,6,4.6,9.2,3.8,10.7,1.1,21.8-8.3,34.2-2.7,3.5-4.8,6.4-4.8,6.6,0,.6,10.9-1.4,14.7-2.8,7.8-2.7,15.8-9,22.6-17.6l2.8-3.5-.4,8.1c-.3,6.3-1,9.4-3,13.7-2.6,5.1-8.8,12-13.2,14.5-3.4,1.9-.6,2.7,9.4,2.7,8.9,0,10.2-.3,16.2-3.2,30.4-15,53.1-69.1,55.5-132.3,2.2-55.9-12.9-104.1-41.2-132.4-13.7-13.8-29.7-22.7-49.7-27.7-6.5-1.7-12-2.2-26.2-2.4-9.9-.1-19.9-.1-22.2.2ZM305.08,401.12c13.9,3.6,26.9,11.7,39.5,24.4,30.6,31.1,41.9,74.8,25.5,98.7-5.7,8.2-14.4,13.3-23,13.3-21.4.2-50.3-20.6-69.6-49.9-3.8-5.8-7.5-11.4-8.2-12.4-1.2-1.7-1.3-1-.6,5,1.9,15.8,6.3,29.7,13.5,43.1,2.4,4.6,4.1,8.3,3.6,8.3-1.2,0-11.3-7-17-11.8-6.6-5.6-16.2-18.3-20.7-27.3-6.3-12.4-8.8-22.7-8.9-36.9-.1-10.7.2-13.5,2.2-19.3,4.3-12.5,13.4-23,26.1-30.5,9.9-5.8,25.6-7.8,37.6-4.7Z"/>
</svg>