<?xml version="1.0" encoding="UTF-8"?>
<svg id="_Слой_1" data-name="Слой 1" xmlns="http://www.w3.org/2000/svg" viewBox="0 0 2378 2378">
  <defs>
    <style>
      .cls-1 {
        fill: #fff;
      }

      .cls-1, .cls-2 {
        stroke-width: 0px;
      }

      .cls-2 {
        fill-rule: evenodd;
      }
    </style>
  </defs>
  <circle class="cls-1" cx="1189" cy="1189" r="1189"/>
  <path class="cls-2" d="M1161.21,1374.44c38.87,3.38,88.18-4.92,127.13-10.44,20.63-2.9,21.55.79,37.54,12.96,7.71,5.85,14.72,11.54,21.57,18.42,9.7,11.55,20.5,18.27,30.45,31.42,11.61,15.35,22.32,29.74,32.2,46.34l1.53,2.57.91,1.59c20.91,40.44,62.21,134.82,13.55,168.56-15.56,10.78-32.68,15.59-48.19,28.07l-2.35,1.9c-7.85,6.54-15.67,14.14-24.91,18.62,8.43-18.98,21.98-36.97,31.59-56.62,13.17-26.91,19.84-53.66,22.82-83.45.41-4.06-1.05-13.13-2.34-3.92-7.86,56.44-32.54,101.8-73.57,141.11l-1.96,1.83c-10.74,9.16-52.34,39.14-64.7,39.45,9.11-10.57,18.68-17.55,28.24-29.61,11.77-14.85,21.61-31.05,29.23-48.39l1.09-2.48c2.84-7.03,15.12-36.7,1.65-11.36-.9,1.7-1.76,3.2-2.74,4.85-41.27,61.74-103.62,112.51-179.62,73.65l-2.5-1.41c-31.21-18.52-42.75-36.24-59.9-67.45-9.73-17.73-12.66-41.94-17.17-61.61-.39-1.65-.66-2.7-1.24-4.26l-.12,8.01c.3,33.86,20.31,85.32,40.57,112.34,6.97,9.04,14.21,16.37,24.37,21.72-62.72-18.95-95.62-49.07-123.17-108.61-10.27-22.2-17.33-44.75-22.74-68.58-3.76-17.68-3.79-37.56-4.94-41.98v-.95c-3.45,54.15,11.88,107.1,38.87,153.8,2.55,4.41,12.4,16.77,13.05,18.49-2.16,2.6-65.99-31.56-72.27-35.67-19.9-13.03-22.69-21.94-22.31-45.17.22-13.25,2.13-26.77,4.66-39.77,13.15-60.06,38.58-98.75,79.47-143.38,16.51-18.01,42.73-55.93,69.75-54.64,21.21,1.01,50.32,11.22,73.75,13.76l2.72.3v.02ZM1915.17,976.91c-1.27-51,.58-110.89-6.13-160.74-4.42-30.13-13.03-55.61-20.69-84.7,7.36,16.65,12.04,23.65,16.63,42.14,24.87,104.94,6.36,212.32,33.14,317.88,9.22,34.5,23.79,59.33,42.29,89.31l2.63,4.23c7.71,12.37,17.2,27.77,25.65,39.42,5.92,8.15,2.24-1.05,1-5.02-10.42-31.88-22.63-62.53-33.13-94-22.93-72.75-17.76-154.63-16.28-230.28,1.03-52.67,8.65,49.01,8.79,54.11,1.5,54.83-3.09,100.05,10.07,154.77l.69,2.84c9.53,36.85,14.34,59.75,30.31,95.27,3.66,8.1,7.02,27.51,6.83,37.38-.12,6.49-9.13-7.49-10.16-8.84-67.68-90.54-87.33-140.28-91.65-253.76h.01ZM512.31,1420.02c.04,74.66,9.68,99.04,30.94,168.43,13.28,43.38-6.18,13.54-17.55-3.85-18.57-28.39-29.72-51.84-37.82-84.86,7.19,60.27,19.93,97.96-25.57,9.47-25.27-49.15,19.78,77.28,20.95,80.13,9.1,22.06,44.44,89.61,4.49,25.14-10.55-17.02-52.8-81.83-57.84-95.97-10.8-30.3-10.16-61.94,23.22-75.5,34.12-13.86,33.53-23.97,54.99-45.66,10.28-10.39,4.43,7.52,4.32,14.56l-.12,8.11h0ZM1242.05,1327.66c4.05,2.05,4.92,3.48,5.76,7.87-18.67,8.65-84.62,7.47-106.55,2.67-3.2-.7-24.77-5.01-14.21-9.94,7.35-3.44,11.98-5.23,19.46-9.6,16.26-9.5,26.64-13.07,46.21-10.63,17.82,2.21,33.6,11.58,49.33,19.63ZM1279.23,971.3c3.61.98,5.25,15.49,5.94,19.34.61,3.35,1.24,6.52.54,9.89-3.36.26-24.32-2.75-15.22-5.2,8.48-2.28,3.06-19.92,8.72-24.03h.01ZM1289.89,980.03c2.78-3.56,16.69,15.58,9.4,25.37-6.05-4.56-9.16-17.99-9.4-25.37ZM614.68,999.85c3.06-4.8-.52-1.38-2.18-.23-4.35,3.04-7.94,7.6-12.75,11.14,0-2.22,2.67-7.53-3.16-1.91-12.46,12.01-21.25,29.31-32.06,42.92-6.67,8.41,1.13-14.41,1.19-14.57,12.47-33.73,57.34-64.72,83.95-88.37,20.97-18.63,56.48-25.46,81.32-12.92,19.24,9.72,28.02,22.66,44.09,35.39,33.29,26.38,67.94,33.77,109.6,27.63,9.44-1.4-8.37,4.6-9.64,5.25-16.23,8.35-25.65,24.1-46.86,15.67-6.7-2.66-14.07-7.47-20.35-11.13-16.51-9.62-32.27-20.25-49.09-29.41l-1.26-.69c-18.43-10.04-48.65-19.36-64.07,1.02-1.46,1.94,1.49.13,3.3-.43,25.05-7.64,28.25-8.58,53.31,1.43,5.49,2.18,18.13,8.39,22.74,11.59-31.83-11.54-65.31-12.18-92.51,10.56-6.54,5.47,6.98-2.34,8.24-2.96,8.31-4.08,20.61-9.74,29.92-9.62-3.42,2.14-6.68,3.42-10.03,5.76,2.39,2.8,8.16-.56,11.05-1.52,6.13-2.03,17.05-5.73,23.26-3.69-6.04,1.85-15.64,1.86-19.67,7.15,11.5,2.45,25.92-7.26,36.76,2.11-7.11,4.2-14.35,4.82-22.44,9.62-11.51,6.82-23.37,16.73-32.64,26.37-5.11,5.31,6.41-3.9,7.15-4.44,6.2-4.44,11.58-8.21,18.49-11.57-3.08,3.93-6.48,7.09-9.51,11.07,11.66-5.56,15.86-12.61,30.34-17.69,13.17-4.62,29.65-6.22,42.89-1.15,5.14,1.97-.08,1.86-2.6,1.79-9.56-.21-11.3-.47-20.93,2.35-8.11,2.37-15.96,5.61-23.85,8.65,9.66-.46,17.85-3.98,27.5-5.93,9.99-2.03,19.82-3.34,30.04-2.59-28.21,10.83-28.61,10.08-45.07,36.39-2.77,4.43-4.26,6.87-4.24,12.17,7.88-3.34,21.21-18.16,30.27-24.2l1.25-.83c7.79-5.2,15.1-8.4,24.55-9.03-11.41,7.03-21.68,8.63-26.96,22.2,3.39-1.05,10.65-10.1,18.63-13.15,4.81-1.84-5.5,4.94-5.66,8.51,2.54.21,8.01-4.9-.69,6.44-2.37,3.09-3.2,4.57-4.53,8.24,10.03-5.37,15.9-14.36,24.4-18.88l1.06-.57c6.5-3.46,5.36,2.9,3.55,6.82-8.46,18.27-7.05,13.75-21.24,26.39-26.49,23.62-59.34,41.08-92.98,52.11-8.03,2.64-19.17,2.62-3.78-2.95,34.81-12.59,25.34-12.55-2.34-1.88-27.77,10.69-45.73,22.32-68.56,40.99-1.92,1.57-35.31,28.56-28.15,10.52,4.71-11.87,25.38-26.01,33.25-38.48-9.47,2.57-32.33,28.78-37.79,38.12-2.52,4.29-12.23,26.16-12.95,26.94.5-8.83,13.45-46.68,18.19-57.07,3.42-7.5,12.89-24.91,14.34-31.47-6,1.69-16.81,22.6-14.26,11.55,1.67-7.24-5.88-14.71-11.21-7.99-7.25,9.14-7.52,10.34-1.24-2.31.08-.14,24.13-46.8,12.61-30.61-5.01,7.04-30.04,53.53-31.74,54.46-.64-3.79,10.96-35.4,13.29-41.28,2.24-5.65,4.71-11.18,7.17-16.73-3.48,3.99-4.28,4.65-9,7.1-.25-5.05-.73-2.63-4.89,1.06,7.82-24.84,28.24-37.72,37.56-60.96-9.33,5.91-24.49,23.3-30.48,25.72-3.05,1.24-12.52-2.05-6.58-12.1,8.27-13.97,24.58-26.95,34.63-41.91h0ZM923.28,880.66c1.03-3.23,4.63-8.31,8.37-8.7,2.89-.3,4.02,8.97,2.91,11.45-2.23,4.95-10.76,3.04-11.27-1.34v-1.42ZM915.17,841.73c8.57,5.71,13.11,14.8,7.93,24.48-4.07,7.59-11.44,10.3-19.55,8.49-21.9-4.87-14.94-36.95,5.82-34.69,2.23.24,3.79.79,5.81,1.72ZM863.95,958.95c23.1-.86,63.61-12.09,71.61-36.71,2.39-7.38,3.66-14.09,11.24-17.99,6.26-3.23,5.43-7.82,6.8-14.5,1.98-9.64,1.47-14.3,1.09-23.86-.17-4.46,1.99,3.39,2.6,4.79,6.38,14.51,18.14,28.51,12.93,44.9-2.72,8.56-21.21,29.96-29.26,36.36-21.31,16.94-37.72,24.47-64.87,27.76-12.59,1.53-24.44,1.18-36.94-.97-43.42-8.19-83.36-43.43-91.26-87.93-1.54-8.63-1.07-15.93,2.39-24.01,4.93-11.5,16.41-25.69,27.3-32.01,2.59-1.5-1.47,3.9-2.05,5.74-17.98,56.67,28.56,116.3,88.39,118.42ZM137.46,1095.66c-.4-17.81,1.65-36.29,2.78-54.18,1.79-16.88,4.2-33.21,7.05-49.94,33.97-160.9,114.98-318.66,246.76-420.31,58.88-45.42,14.9-17.6-8.68-13.99-27.2,4.16,66.32-51.06,11.73-20.82-12.35,6.84-24.14,14.86-36.57,21.89,2.51-5.05,10.49-11.2-3.17-2.31-55.93,36.4-25.69,8.16-.49-16.7,56.29-55.51,82.37-73.33,159.73-93.2,15.91-3.8,32.58-7.46,48.54-10.95,4.92-1.08,44.81-10.54,45.29-1.87.43,7.82-19.39,40.75-23.9,50.98-7.83,17.76-14.11,36.14-20.48,54.46-18.22,47.66-40.98,90.42-53.91,140.19l-2.05,7.89c-36.52,158.3-17.01,240.73,5.52,396.09.64,5.28,1.22,10.56,1.83,15.82,2.72,23.98,6.08,50.46,10.42,73.3,4.59,24.21,10.92,41.82,15.23,67,5.75,73.86-24.26,160.84-92.44,197.52-60.72,32.67-46.41-55.4-42.84-87.54,11.17-100.39,49.11-194.98,57.1-296.43l.59-7.55c4.65-109.06,12.85-206.39,30.52-314.31,8.29-50.04-32.2,110.23-33.38,116.89-13.7,78.94-16.1,162.96-30.67,239.09-25.11,100.57-89.42,154.15-112.22,259.19-5.05,20.92-13.98,39.54-24.24,58.37-3.97,7.29-5.61-4.15-6.71-8.86-2.76-11.82-4.42-24.94-6.11-37.04-21.63-131.83-22.33-217.73,16.26-347,9.95-31.45,50.5-163.74,77.2-176.87-.28,23.76-5.81,38.27-10.06,60.88,39.9-25.45,46.99-87.77,65.68-128.79,37.17-72.83,52.12-74.85,59.39-162.47,2.71-32.61-10.56,25.54-14.64,34.79-17.18,38.94-54.85,103.7-87.47,130.47-8.29,6.81-5,2.59-2.41-11.4,9.48-51.16,34.01-140.2,64.61-182.32,6.21-8.53,12.77-16.9,19.08-25.39-7.65,3.91-19.66,14.4-2.67-3.95,26.15-28.26,43.19-35.83,79.42-46.47,8.33-2.33,30.65-9.52,5.04-4.14-113.41,32.9-119.28,70.79-160.48,170.65-4.3,10.41-.17-6.3-.16-11.34-29.79,47.04-57.21,97.77-84.99,146.21-22.14,38.95-36.29,69.39-49.95,112.2,33.93-53.6,90.99-158.84,131.71-200.04-12.26,80.54-92.25,232.07-127.77,313.52-29.77,69.8-25.07,131.05-31.56,203.77-9.37,98.52-24.41-91.16-28.82-15.77-.89,15.23-.98,36.04-9.78,7.17-14.26-46.71,2.63-192.76,13.23-246.56,25.47-132.67-4.98-17.48-12.98-35.21-7.13-15.79,44.38-147.17,51.44-174.25-15.24,10.99-58.39,113.02-67.02,136.29-22.74,64.85-30.16,125.54-37.51,193.31v.02ZM772.74,290.37c-8.8,4.28-29.09,8.81-38.47,6.38,3.01-1.43,34.84-6.79,38.71-6.73l-.24.35ZM785.27,1732.57c-6.45-8.01-29.65-28.88-32.43-34.07.14.04,22.06,18.56,24.23,20.11,19.52,13.95,39.42,21.06,62.19,27.7-3.2-13.57-21.26-37.36-23.47-47.78-.63-2.98,6.94,9.06,8.03,10.3,11.2,12.9,22.23,22.47,34.93,33.73,25.4,22.51,44.25,47.09,67.97,70.59,1.02,1.01,2.17,2.25,3.4,3.01,3.21.55,3.2-8.23,3.32-10.12,1.61-25.63-6.91-56.53-8.63-82.21-.76-11.33-5.73-31.61-7.96-43.55-1.84-9.83-6.13-31.56-5.15-41.08,5.51,4.95,22.36,39.7,28.36,32.8,1.36-1.57,1.27-13.49,2.43-17.71,9.62.75,35.95,17.15,47.66,22.36,28.85,12.83,48.55,20.09,76.03,37.29,24.52,15.16,48.21,25.92,77.75,23.94,12.46-.84,21.01,3.82,33.86,5.51,26.01,3.42,47.77-.64,70.63-13.52,11.94-6.96-6.76,6.39-5.49,13.43.6,3.34,25.17-3.5,27.52-4.32,20.45-7.18,44.33-21.96,59.99-37.02l1.65-1.63c9.63-9.76,2.66,1.04.01,5.56-3.83,6.53-5.96,10.42-8.58,17.61,25.35-13.34,40.59-27.87,62.88-44.64,14.29-10.12,29.59-15.48,44.83-23.81,22.07-12.07,10.82-1.22,14.18,15.18,2.79,13.66,23.38-15.86,25.35-19.25,1.72-2.97,10.83-23.29,12.52-23.43,1.95,3.6-6,59.44-7.43,67.23-5.71,30.91-13.56,54.16-22.97,83.72-2.11,6.62-3.43,11.56-3.91,18.52,17.57-4.42,64.36-45.18,78.23-59.47,10.19-10.73,19.4-22,28.46-33.68l1.64-2.13c13.31-17.39-12.93,26.21-14.64,28.82-3.85,5.82-14.18,20.54-15.25,26.58,11.74-3.16,24.24-9.89,35.97-14.21,30.07-10.49,58.17-22.65,87.87-33.74,38.5-15.79,62.54-50.98,65.04-92.45.45-7.36.24-13.65-3.71-20.03-3.95,4.79-6.05,17.42-8.71,24.44-9.06,23.82-21.36,49.66-39.2,68.13-8.7,7.53-3.25-4.68-1.91-8.58,2.06-6.02,3.63-10.9,1.96-17.18-7.78,6.38-17.69,34.32-26.59,41.64.05-.12,20.67-32.16,12.01-24.55-9.86,8.66-14.43,20.89-27.97,29.36-3.39,2.12-6.05,3.2-9.75,4.63,8.38-12.27,16.73-21.32,25.02-32.67,9.18-12.58,18.27-37.81,18.91-52.71.33-7.71-10.6,60.74-68.21,96.37,26.08-28.27,54.99-57.46,62.12-96.94,3.58-19.78-9.92,19.6-11.25,22.4-18.74,39.66-50.09,62.53-85.23,86.46-3.42,2.31,3.49-7.17,4.06-8.11,27.82-46.43,45.43-93.54,52.97-147.21,1.41-11.53,2.15-22.73,2.5-34.33.9-39.92-3.75-76.79-15.81-111.98-8.04-23.44-30.3-64.92-46.57-79.47,2.72,4.82,16.86,20.54,26.2,39.88,1.15,2.39,1.31,3.9,2.97,7.01,38.91,77.32,35.32,172.87-5.21,248.82-25.98,47.81-52.13,80.73-95.56,114.11-4.32,3.32-7.36,5.19-12.36,7.39,2.06-14.96,9.16-32.85,12.77-48.61,11.99-52.53,16.03-107.65,21.81-161.18,2.06-18.79,3.45-37,3.74-55.9-5.51,5.47-4.51,13.71-5.67,21.62-4.69,30.99-21.65,95.31-41.53,118.79,3.13-68.48,11.85-94.81-21.96-158.72-5.19-9.83-10.75-19.37-16.44-28.92-27.33-44.87-57.1-82.21-98.36-115.25-13.27-10.62-23.34-16.89-36.21-29.15-11.41-10.86-14.59-14.78-24.09-27.18-7.23-9.45-14.87-18.3-22.28-28.02-11.48-15.07,8.81,17.19,10.41,19.31,7.54,9.96,36.48,47.7,45.12,52.5-28.78-18.76-48.09-29.88-66.63-60.78-2.66-4.44-11.79-23.9-13.88-25.79-1.59-1.43.73,5.06,1.05,6.24,4.9,18.57,10.17,28.58,18.25,45.39-7.97-7.92-18.24-24.41-23.25-34.85-10.88-22.65-14.39-42.68-11.92-67.95,1.58-16.09,5.52-30.68,18.63-41.01l1.34-1.05c19.42-14.27,55.65-22.83,67.27-32.47,6.22-5.16,6.9-15.06,1.85-21.81-4.25-5.68-9.82-9.49-14.69-16.15,25.44-7.61,49.61-8.34,58.97-38.34,10.68-34.2-15.78-74.84-46.62-89.88-13.34-6.51-26.25-8.84-41-8.81-3.47.06-6.81.37-10.26.73-45.07,5.49-38.32,21.49-66.11,8.61-44.02-20.39-91.91-1.75-118.81,36.15-.33.48-.7.95-1.03,1.43l-2.92,4.79c-10.99,22.09-10.47,54.27,11.34,69.24,16.34,11.21,27.87,13.47,47.08,16.33,2.6.39-.79,2.28-2.31,3.71-4.68,4.34-16.56,13.97-17.91,19.91-1.93,8.51,5.34,18.78,13.29,21.42,6.7,2.23,13.88,3.86,20.66,6.02,12.22,3.9,24.5,8.56,36.1,14.05,28.4,14.73,33.98,35.42,31.26,66-3.48,35.4-15.95,64.8-42.89,88.69,11.19-19.17,14.14-26.86,17.99-48.77-8.88,11.72-14.96,23.25-24.68,34.7-13.64,14.45-39.7,37.68-56.69,47.35,2.2-4,13.03-15.4,10.4-20.46-.14.03-19.94,24.4-21.85,26.59-6.11,7-61.71,67.39-65.3,66.56.3-1.7,13.99-22.17,16.57-26.65,3.56-6.17,22.03-35.05,19.85-39.73-3.23,1.01-20.57,32.9-24.55,39.03-15.9,24.47-35.61,47.28-52.2,71.8-15.6,25.09-33.09,56.18-38.01,85.52-4.28,29.24-11,55.54-3.05,84.94-9.32-16.89-17.24-30.29-23.5-48.81l-.97-2.96c-3.7-12.37-5.13-22.08-6.48-35.83-1.68-17.12,1.73-35.38-2.69-40.22-12.14,68.77,10.42,107.51,21.15,172.61,6.14,38.36,10.42,76.81,14.08,115.47.89,9.41,1.63,7.86-4.04.88-39.04-47.38-83.91-73-118.09-129.16-29.49-48.45-35.38-96.6-34.16-152.29-2.14,2.11-1.32.43-2.79,3.89-.57,1.35-.66,2.74-.81,4.45-4.77,64.33,17.61,142.14,48.1,198.48,4.16,7.68,9.17,14.58,13.61,22.11-46.07-21.83-67.07-41.56-99.38-80.48-1.91-2.29-26.22-31.6-15.74-11.93,11.5,21.59,19.78,33.53,33.75,53.21-.04.11-18.72-17.87-20.25-19.46-59.12-65.83-69.66-135.76-55.92-220.89,1.24-6.76,2.4-13.03,3.96-19.51.69-2.85,1.57-6.13,2.41-8.96l-.35-9.41c-1.48,10.19-6.64,23.46-9.06,35.41-8.39,45.89-11.93,94.8-1.64,140.6,5.55,24.67,10.81,47.6,22.92,70.09,4.4,7.31,10.05,14.93,14.82,22.15,8.41,12.87-23.41-26.69-23.46-26.76-13.05-18.86-20.6-33.4-30.49-53.88-10.34-17.09-.94,26.92.83,33.68,2.99,11.44,12.26,26.02,2.23,13.19-46.17-59.04-48.92-85.11-39.07-158.97,7.78-56.19-6.93,19.03-7.87,33.32-1.39,26.57-.33,48.31,2.25,74.7-17.27-55.73-9.71-56.04-1.29-109.03,8.21-51.61-20.34,48.47-21.67,56-3.75,21.11-6.91-17.04-7.81-22.67-4.17-26.1-3.38-46.18-2.18-72.29,1.55-31.43-3.88-2.13-5.55,7.45-7.19,15.97-6.78.66-6.5,25.93.54,48.53-8.33-22.76-7.73-31.87,1.69-25.94,9.53-54.39,14.47-80.22,1.35-18-4.72-3.79-7.84,3.22-5.88,13.22-11.99,26.41-17.75,39.65,1.75-8.53,3.89-16.9,5.79-25.4-2.98,3.99-3.57,7.27-1.55-3.22,7.59-39.32,25.03-81.52,43.19-117.15l2.44-4.67c33.56-58.13,80.91-87.36,138.21-118.47,25.86-14.04,51.36-27.3,76.05-43.44,9.66-6.32,18.65-13.1,27.14-20.94,8.59-7.84,13.86-11.2,21.7-20.57,4.05-4.83,9.27-8.67,13.9-13.23,13.7-13.5,27.56-27.74,41.49-40.88,12.67-11.97,38.34-28.47,54.22-35.92,16.54-7.27,27.99-10.67,46.54-14.45,24.6-5.02,29.38,1.54,50.82,5.61-3.65-7.92-16.99-13.24-23.9-18.16-5.19-3.7-6.78-4.57-14.32-6.81-3.15-.94-4.82-1.42-8.18-2.06l-8.13-2.12c28.12.44,39.34,10.38,55.19,16.07-9.55-18.88-26.19-19.13-41.04-29.13-1.55-1.05-2.34-1.71-3.61-3.07,12.93,3,25.88,6.01,38.89,8.62-13.24-13.84-26.2-14.51-40.78-25.1-2.33-1.69-4.16-2.24-.07-1.16,9.6,2.55,21.39,6.8,30.95,10.2,8.89,3.16,17.37,7.1,26.33,10.16-1.45-2.04-.3-.64-2.08-2.34-5.02-4.33-16.49-9.76-22.86-14.02-8.67-5.8-16.17-11.27-23.21-18.93-4.33-4.7-2.8-2.99,1.66-1.01,15.57,6.93,30.98,14.04,46.86,20.24,14.11,5.51,25.16,12.19,38.39,18.78,1.78.88,3.41,1.65,5.3,2.27l-18.71-16.14c-11.19-8.55-54.51-31.55-59.12-39.62-1.32-2.32,6.39,3.1,6.51,3.18,4.55,2.93,6.93,4.82,12.16,6.82-4.53-4.04-8.73-6.79-12.88-11.45,27.88,9.74,77.15,32.16,94.53,56.11-3.28-7.2-12.8-16.17-18.19-21.89-6.5-6.9-12.46-11.96-21.77-18.18-15.7-9.53-31.18-16.97-41.39-32.99,23.38,21.49,38.12,18.84,64.09,32.02,14.19,7.2,23.77,18.54,33.15,31.25,14.23,19.65,10.62,22.24,17.77,35.37-.1-12.75-10-33.71-15.28-42.84-11.01-18.99-12.14-15.81-14.32-42.39,3.09-19.49,15.14-37.85,23-55.89,8.83-20.27,14.6-27.11,18.33-50.32,1.23-7.75,2.17-15.4,2.05-23.24-1.23-84.04-23.16-140.27-62.06-213.26-9.68-18.16-19.1-35.97-27.53-54.78-2.27-5.06-4.3-10.11-6.22-15.31-.14.31-.28.75-.33.98-.79,17.05,26.46,71.89,33.92,92.68,7.35,20.48,14.97,40.82,21.99,61.43,2.94,8.6-5.38-9.04-6.2-10.39-25.09-41.86-65.1-78.74-105.24-106.07-12.24-8.33-24.1-14.94-37.46-21.27-18.22-8.65-37.82-17.84-56.36-25.48-10.67-4.39-20.89-8.57-32.4-10.27,11.46,10.1,37.1,19.86,51.46,28.2,17.05,9.89,32.58,21.02,50.16,30.04,23.7,12.15,54.37,33.36,71.75,53.56,10.58,12.3,20.83,25.04,30.96,37.72-9.54-7.23-24.01-27.23-34.05-37.43-22.95-23.32,10.64,14.28,13.11,17.11,16.95,19.46,30.81,36.8,40.63,60.99,4,9.87,7.12,20.21,10.44,30.34,4.45,13.66,9.23,29.07,9.78,43.45.16,4.22-2.14-5.33-2.2-5.56-.6-2.36-.85-4.06-2.54-5.84.1,13.66,5.58,40.52,1.54,51.97-.68-9.51.56-28.03-5.37-35.43-1.24,10.98.89,19.39-1.34,31.02-2.59,13.48-3.88,22.19-8.42,35.52-6.21,18.24-14.78,35.42-23.88,52.36-4.02,7.47-6.53,15.46-10.47,23.05-1.64,3.17-13.88,24.3-9.09,6.93,4.09-14.81,9.22-24.25,11.76-40.16.64-3.99,4.92-28.46,3.82-30.63-1.38-2.74-4.83,11.86-4.92,12.15-2.08,6.86-19.07,62.88-26.46,60.13-2.88-1.07-5.39-6.3-5.23-9.22.32-6.19,5.42-22.6,3.44-27.05-1.16-2.63-2.71,1.11-2.96,2.43-.86,4.42-3.82,19.11-9.09,20.06-3.86.7-.65-13.35-.32-16.03.47-3.94,1.02-7.9,1.05-11.88-3.09,4.93-3.82,10.52-6.02,16,.79-20.41,5.74-33.71,3.17-55.27-6.58,10.75-2.55,28.96-4.74,32.51-1.38-5.2.72-19.89-.49-26.58-.33-1.82-.8-2.84-1.68-4.45-1.86,12.03-2.99,25.01-5.12,36.74-.65,3.58-.88,7.8-2.44,1.09-1.31-5.6.43-16.12-2.8-20.83-1.21-1.76-.76,6.94-.78,7.4-.4,16.13-2.35,35.66-5.81,51.41-1.78,8.08,1.85-26.3,1.99-28.12.93-11.71,1.05-21.43-3.06-32.65-.33,10.55,4.03,49.63-6.21,54.52l-1,.37c-2.59.97-3.77-3.02-3.97-5.21-.34-3.86.29-9.94.25-14.21-.32-33.44-4.49-63.64-13.68-95.79-2.89-10.1-8.34-21.57-15.55-29.29,6.3,17.99,13.32,30.61,17.23,49.96,2.98,14.79,14.69,71.81,7.04,82.56-1.36-27.41-3.49-31.05-12.53-56.32l-1.29-3.62c-1.11-3.08-5.73-18.43-7.91-19.51-1.36-.68-1.03.03-2.65-1.9-12.25-14.54-34.24-39.72-52.01-46.15,15.53,15.17,38.45,33.22,48.62,51.8,9.08,16.62,13.61,38.07,13.41,56.99-.41-.76-1.07-7.84-1.3-9.32-2.63-16.78-8.89-45.92-21.89-57.4-6.84-6.04,5.25,15.22,5.65,15.95.76,1.35,1.64,2.67,2.27,4.1,6.2,14.02,13.55,44.3,12.43,59.41-.19,2.64-1.37,2.78-2.71,5.6-2.65,5.57-4.25,1.48-5.64-2.45-1.52-4.31-2.44-9.26-3.42-13.75-4.45-20.34-4.44-25.59-15.33-44.07-2.03-3.45-31.11-47.85-31.12-39.52,0,2.18,6.4,8.74,7.96,10.78,11.93,15.62,30.94,47.7,31.96,67.26.39,7.5-6.4-1.75-7.8-3.49-3.43-4.27-6.48-8.95-9.84-13.3-5.67-7.33-13.58-16.84-20.83-22.46-4.16-3.22,5.03,7.17,5.12,7.3,1.18,1.55,1.77,2.72,2.68,4.44-7.83-7.16-14.51-13.92-22.75-20.88-21.38-18.07-29.01-25.29-56.97-32.74-5.06-1.35-13.36-4.66-18-5.01,13.74,12.24,33.6,19.96,49.1,31.93,7.04,5.44,15.21,11.77,20.42,18.97l.7.98c1.74,2.41-1.61-.54-2.02-.88-5.67-4.82-16.2-16.05-22.88-17.87,2.52,4.98,15.65,17.41,20.14,22.58,11.33,13.11,22.64,26.53,33.2,40.33,7.07,9.23,18.59,38.4,21.75,49.9-3.23-6.6-5.47-13.11-8.95-19.95-6.18-12.14-12.98-24.01-21.01-35.02-25.44-34.88-62.31-67.79-101.93-85.46-9.65-4.3-17.2-6.29-27.8-6.89,15.53,7.16,31.16,13.18,46.38,21.13,5.25,2.74,19.42,10.38,23.1,14.28-3.15-.89-12.8-6.92-17.7-8.98-21.31-8.96-49.29-15.47-72.39-12.81-10.27,1.18-26.5,3.35-35.83,7.33,20.79.7,24.65-2.23,46.69,3.75,30.91,8.39,51.45,18.53,77.63,36.84,4.19,2.93-3.45-1.52-3.94-1.77-28.58-14.81-71.15-38.12-103.59-37.03-8.86.3-21.01,1.78-28.94,5.75,26.62-.47,27.5-.04,53.35,7.78,8.11,2.46,14.67,4.72,22.29,8.54-38.21-6.93-45.96-13.36-84.67,1.1-11.89,4.44-18.43,9.02-.58,4.9,20.08-4.64,29.84-6.04,50.79-4.14,6.93.63,13.53,1.58,20.38,2.75-27.26,1.83-61.65,5.01-86.14,17.5-3.67,1.87-7.19,4.01-10.84,5.93-14.97,7.83-45.49,24.36-51.47,40.69-2.42,6.62,7.91-2.28,9.25-3.23,34.67-24.8,48.88-31.48,90.21-43.21,11.27-3.19,9.51-2.62-.01.94-23.58,8.83-76.02,37.29-92.04,55.6-6.42,7.34,9.83-4.81,10.46-5.26,13.48-9.38,25.68-17.21,39.9-25.48,23.43-13.64,44.68-26.37,72.64-27.03,8.68-.21,17.41.69,26.03,1.66,3.57.41,7.11.65,10.7.83-28.16.98-64.82,13.09-88.08,28.97-4.09,2.8-12.51,8.58-14.83,12.79,3.98-.58,5.26-1.81,9.42-.79-3.75,9.26-8.29,11.6,8.63,2.56,16.07-8.59,31-17.91,48.83-22.93-11.52,9.15-17.29,10.35-27.18,22.76-10.34,12.99-27.15,27.57-40.31,39.15-13.56,11.93-35.67,22.32-52.37,29.41-7.97,3.37,19.6-11.72,21.07-12.42,10.27-4.98,16.86-7.72,25.38-15.82,2.96-2.82-.54-.34-1.42.1-10.82,5.41-21.12,11.21-32.11,16.61-23.93,11.73-47.14,31.41-65.91,50.23-5.46,5.48-8.98,10.26-13.61,16.4-15.65,20.76-25.03,33.2-37.59,56.33-7.21,13.27,3.09-14.74,3.64-16.4,7.23-21.82,10.03-27.63,23.47-46.42,5.71-7.98,8.84-12.59,15.78-19.89,17.61-18.54,32.45-29.79,52.68-44.93.05-.04,16.27-11.85,9.12-9.6l-1.98.77c-12.58,4.83-40.08,30.08-52,39.8-10.25,8.36-21.96,24.11-29.51,35.27-6.06,8.96-10.67,18.36-16.37,27.37.55-11.19,3.63-24.23,5.8-35.34.86-4.39,1.69-8.77,2.64-13.13,4.19-19.36,9.07-38.56,14.3-57.66,16.27-59.29,36.33-116.55,71.72-167.43,2.17-3.12,4.16-5.48,6.72-8.26,3.41-3.72,6.92-7.33,10.35-11.03,2.32-2.49,4.61-5.01,6.92-7.5,5.97-6.47,11.68-13.33,18.32-19.1,21.45-18.59,39.57-35.24,63.15-51.55,14.46-10.01,22.73-14.77,39.02-21.83,25.35-11,64.07-24.09,91.56-24.21,5.13-.02,10.16.23,15.27.62,17.22,1.35,34.12,4.96,50.86,9.08,2.97.73,5.89,1.54,8.83,2.4,12.34,3.59,24.61,6.7,36.73,11.08,9.5,3.44,18.78,7.54,28.14,11.36,1.35.54,2.71,1.14,4.09,1.55-2.64-4.51-8.22-9.88-12.12-14.6-11.82-14.41-23.93-30.45-36.34-44.13-14.2-15.66-32.01-30.62-51.32-39.46,21.25,5.52,52.7,19.54,71.53,30.95-19.31-16.49-54.35-33.98-77.99-44.38-13.35-5.86-58.87-18.09-71.61-12.62l-1.65.92c6.77,2.48,13.21,5.76,20.19,8.4,31.07,11.75,49.47,21.1,77.04,39.69,7.77,5.23,18.4,11.52,24.02,18.95l.79,1.05c-9.85-2.54-19.97-6.48-30.06-7.33,17.24,9.81,30.83,14.22,46.88,27.2,5.03,4.07,9.93,8.29,14.87,12.46-38.81-16.75-59.65-27.33-102.9-32.68-65.36-8.08-112.42.35-175.52,16.13-13.03,3.26,2.17,2.51,5.68,2.12,19.07-2.09,37.86-5.54,57.18-7.52,16.34-1.67,35.85-3.15,52.16-1.85-36.23,9.12-65.55,21.9-97.93,40.4-32.58,18.61-61.23,41.24-85.86,69.61-14.36,16.54-45.82,51.97-48.68,73.31-.93,6.96,6.56-.59,10.26-2.72-9.99,13.33-25.49,29.35-28.18,46.57-.33,2.15,1.49,6.11,4.59,2.14,2-2.57,20.93-30.99,17.06-24.54-24.27,40.55-39.88,98.53-50.8,144.57-13.26,59.81-21.71,115.52-24.02,176.85-7.21-35.67-19.38-66.15-22.81-103.1-9.28-100.13,22.11-175.41,60.34-265.26,1.9-4.47,3.75-8.94,5.53-13.46-62.07,89.27-64.41,128.97-77.94,232.82-10.27,53.27-9.74-106.12-8.82-112.9,9.32-69.03,36.35-131.04,69.87-191.44l7.29-12.83c9.59-17.21-17.48,26.26-17.64,26.52-25.23,44.68-35.69,75.67-54.28,122.15-28.98,65.43,7.39-65.92,9.15-72.11,12.33-33.42,25.26-49.73,40.07-78.69,15.63-30.56-39.38,55.08-24.21,22.13l5.11-11.09c9.33-19.44,20.16-39.81,30.83-58.6,37.31-63.14,81.77-108.83,148.81-140.15,14.98-7,29.89-13.16,45.73-17.88l2.91-.87,5.68-2.45c-70.3,12.03-117.97,50.03-172.9,91.6-22.74,17.21,2.54-11.44,6.49-16.63,35.84-47.11,52.93-59.21,102.76-89.83,26.62-16.36-33.48,14.17-35.17,15.24-10.76,6.83-23.9,15.59-34.2,23.09-13.87,10.1-19.12,19.02-30.73,29.6-9.72,8.85,29.3-45.5,35.59-52.87,21.31-24.97,44.16-43.69,72.91-59.45l2.37-1.3c26.33-14.43,53.83-20.33,83.54-23.46,16.07-1.7,31.37-1.32,47.46-.07,3.77.29,7.52.68,11.28,1.08,9.04.98,17.79,1.78,26.88,2.25-.31-.17-.72-.35-.96-.45l-2.93-1.16c-1.15-.37-1.78-.47-3.06-.78-53.72-10.97-92.87-7.63-145.35,6.45-26.12,7-35.27,2.71-59.07-8.32-6.57-3.04,4.1-1.4,7.5-1.46,30.93-.62,61.79-13.69,91.75-21.07,7.51-1.85,13.89-3.53,21.15-6.27-25.34-.6-38.79-7.31-3.4-8.89,18.84-.85,37.93-.56,56.79-.32-32.19-9.48-65.89-.23-98.66-2.93-9.83-.81.66,1.83,4.64,7.49-16.91,6.52-44.49,4.53-53.53,8.23-6.67,2.73,18.54,11.23,13.91,13.95-9.23,5.4-36.27,4.99-47.3,4.86-10.47-.13-12.87-.77-4.39,8.41,20.16,21.79,49.47,15.01,50.45,15.68-35.58,13.11-67.78,20.84-105.28,26.39-30.91,4.57-48.94,17.2-76.23,30.12-2.66,1.26-4.75,2.29-7.2,3.95,21.46,10.56,31.12,3.01.99,9.52l-5.96,1.28c-15.55,3.35-31.2,9.32-46.48,13.97-8.95,2.72,5.38,1.76,6.65,1.5,6.8-1.4,11.05-2.57,18.28-3.61,5.23-.76,140.87-18.55,119.04-1.68-10.06,7.78-67.12,14.02-84.57,17.49-151.42,32.06-195.06,97.67-282.61,216.82-11.38,15.49-22.46,31.04-33.37,46.87-7.84,11.47-15.73,22.99-20.89,35.93,25.82-26.52,61.12-62.49,91.86-82.2-17.05,30.59-38.73,59.48-57.01,89.85-130.06,229.97-150.59,411.95-49.06,658.91,24.68,60.02,2.68-32.89.62-45.13-9.18-54.53-5.08-47.68,14.22-4.67,18.81,42.83,36.41,96.84,62.58,134.7,5.7-13.64-4.2-38.46,19.68-.43,34.35,54.73,53.83,108.68,92.35,164.03,2.43,3.49,15.29,19.77,14,24.39-33.36.6,112.61,42.74,16.47,33.24-40.8-4.03-74.83-24.87-13.05,21.56,40.73,30.62,72.93,11.23,59.94,4.86-4.84-2.38-69.26-15.32-37.76-12.99,26.34,1.94-18.79-8.54,24.41-3.09,35.37,4.46-37.35-10.08,9.45-2.67,30.31,4.8,48.95,19.05,78.47,28.24,41.91,13.05,80.56,19.77,123.78,26.19,33.45,4.92,44.09,9.78,74.64,22.76,11.17,4.75,2.19-1.85-2.24-6.62-11.51-12.39-23.28-25.32-36.46-35.97,13.36,8.21,22.6,17.24,37.44,24.78-9.77-15.06-24.51-27.59-35.75-42.77-12.4-16.74-23.26-33.9-30.5-53.53,13.6,8.76,20.11,14.48,35.44,21.84,27.55,13.24,59.15,29.22,88.72,36.52l.03-.04ZM1555.22,879.77c-10.11.79-9.04-11.96-.76-13.92,6.25-1.48,11.07,10.94.76,13.92ZM1523.83,834.31c16.23-4.58,26.5,12.11,20.78,24.1-1.63,3.41-4.89,7.1-9,8.41-24.33,7.74-34-26.22-11.79-32.51ZM1460.81,961.61c-26.39-12.25-44.44-31.62-60.22-55.63-3.33-5.06-6.76-9.78-6.65-15.92.21-11.87,9.88-30.9,17.98-39.58,1.06,27.41,1.12,36.89,15.43,61.4,12.26,20.99,38.03,36.22,61.81,39.11,27.46,3.34,55.17-2.44,75.49-22.43,8.63-8.49,3.9-16.26-.61-13.85-3.79,2.01-3.76,4.09-9.04,5.3,1.19-6.49,5.65-14.57,13.37-13.34,5.79.92,5.5,15.94,17.5-9.7,5.3-11.33,7.1-21.68,6.8-34.05-.26-11.12-.79-17.07-3.1-28.19-.95-4.57-.26-2.53,2.42.07,36.39,35.16,33.06,58.95,3.83,97.83-21.21,28.22-54.87,38.99-89.01,38.67-16.03-.16-31.15-3.65-46-9.7h.01ZM2220.36,1161.82c-12.26,23.45,5.11-23.54,6.12-27.6,8.94-37.21,7.36-97.28-5.28-134.24-4.43-12.95,3.4,31.28,3.49,32.26,2.68,29.3-.23,104.44-13.12,129.75-7.78,14.21,1.38-39.89,1.63-42.31,2.67-27.42.61-62.62-.54-90.57-3.71-89.63-13.44-149.66-58.27-228.83-6.72-11.77-13.5-21.69-21.88-32.33,15.33,45.51,56.9,160.12,51.49,202.53-1.84,14.41-11.08,14.67-16.73.17-12.51-32.12-16.14-64.03-29.79-97.78-9.82-24.27-19.73-42.1-35.1-63.32,19.62,64.42,46.27,120.22,57.09,187.77,5.57,34.85,7.15,70.13,5.62,105.41-.77,13.88-9.85,64.01-27.02,63.26-10.07-.43-6.02-21.99-5.4-28.26,2.46-32.33,6.19-64.12,4.74-96.62-.35-7.95-1.29-15.54-2.49-23.41-4.01-11.36-3.54-10.2-2.77,4.32.5,9.49,1.29,18.36,1.45,27.95-1.61,64.04-14.29,112.49-28.89,173.82-3.52,14.81-7.77,59.97-12.47,69.37.78,13.27-11.18,83.96-15.07,100.6-3.65,14.91-13.4,49.84-20.2,62.33-.05-.47,2.65-22.07-1.14-14.17-3.08,6.45-4.86,15.01-3.5-1.41,1.63-19.67,4.75-35.19,4.92-55.67.01-1.41.02-2.81.02-4.2-.02-40.97-4.16-43.87-6.8-75-5.32,10.53-1.91,66.49-2.9,83.65-2.93,26.94-5.26,55.37-8.9,82.03-3.81,27.82-18.03,65.13-31.92,89.56-11.97,20.19-26.8,37.88-42.75,55.06-5.91,6.35-5.58,6.56-4.4-2.39,2.16-16.37,8.07-36.29,11.41-53.1,14.11-72.97,22.97-166.2,2.8-238.45-2.42-8.69-4.92-14.84-9.4-22.67,4.33,23.38,14.9,48.87,10.99,73.17-4.13,19.34-9.78-8.49-11.15-9.18-2.22,2.85-4.13,64.01-4.92,73.13-5.73,66.79-22.38,115.49-70.27,163.93-5.23,5.02-10.66,10.34-17.72,12.51.34-2.56,2.76-6.83,1.19-7.74-2.83-1.62,1.98-7.2,3.6-10.02,45.49-80.05,48.01-131.73,15.91-217.69.95,14.77,6.17,29.65,7.34,46.23,4.46,63.42-15.89,136.08-61.08,182.11-22.93,22.92,7.26-29.39,9.31-33.88,12.33-27.1,21.62-53.22,23.84-83.15-4.6,13.01-5.74,18.32-12.47,31.27-7.71,14.84-19.84,35.63-32.78,46.21l-1.72,1.4c-.06-8.29,10.5-24.26,14.38-32.47,6.34-14.69,10.6-29.9,13.99-45.5l.56-2.63c12.63-75.39-6.71-132.98-6.72-206.24,2.35-32.18,10.54-59.03,16.4-90.23-5.54,3.71-4.88,4.66-2.36-5.57,9.66-39.31,19.45-63.03,22.44-105.24,1.25-17.85,1.2-35.31.51-53.18-.4-8.04-.95,3.24-1.17,5.08-3.42,30.8-8.45,103.33-24.58,127.17-.68-3.34.35-13.6.24-13.74-1.08-1.52-4.14,1.21-2.32-9.04,4.6-25.82,10.81-41,11.94-68.72,1.46-35.64-5.37-63.9-16.43-97.42-11.38-31.87,4-77.51,6.17-112.02.71-11.27,1.16-22.51,1.29-33.8.54-47.63,1.19-79.57-6.84-127.3-3.63-21.62-8-43.13-12.38-64.61-5.67-27.8-12.28-48.92-23.78-74.97-23-53.71-28.34-67.53-71.87-109.08-.63-.6-10.66-11.46-4.53-8.3,3.83,1.98,54.91,31.42,38.22,8.34-1.53-2.11-13.88-15.89-12-16.87.81-.42,10.81-1.98,12.56-2.29-3.68-5.81-15.39,1.34-26.56-12.4-3.22-3.96-1.7-2.12,5.82-2.54,28.24-1.59-6.44-5.21-11.52-7.17-11.8-4.57-18.16-18.76-26.78-27.51-29.6-29.99-31.35-25.63-67.77-43.02-8.61-4.11-8.56-3.68,1.4-2.67,13.64,1.39,27.33,3.39,41.22,4.82,37.47,3.84,68.82,10.63,105.03,20.69,3.34.93,6.67,1.88,9.99,2.83-.82.07-12.63,4.77-16.18,5.82-6.6,1.94-13.3,3.56-20.45,3.51,11.64,9.76,60.52,21.17,77.55,23.12,5.04.58,11.97,1.16,16.62,3.06-8.58,2.73-10.44,2-19.1,1.75,17.03,4.7-10.38,6.02-14.75,5.74-8.41-.53-17.3-2.41-25.8-3.43,17.43,9.42,41.68,10.74,61.93,19.53,29.68,12.88,50.09,30.44,72.17,53.6,13.88,14.67,28.34,27.81,42.22,42.9,9.75,10.58,20.53,21.33,30.58,31.86,8.34,8.74,17.54,16.79,26.19,25.27,6.46,6.41,14.1,11.95,20.89,18.98,4.05,4.19,8.85,7.61,13.4,12.13,10.85,10.8,20.83,17.99,31.7,30.06,10.31,11.46,19.44,22.27,30.19,33.55,27.94,29.32,68.63,95.08,85.72,132.87,25.26,55.87,33.29,109.56,36.3,170.36,2.27,48.01-3.56,111.42-22.07,156.01-4.71,11.34-10.09,22.2-15.75,33.09v.03ZM1697.54,902.06c-25.72-13.31-40.59-19.9-60.37-40.62-9.6-10.05-24.37-23.85-35.48-32.16,5,2.93,9.71,5.31,14.46,8.7,1,.83,20.71,17.51,12.62,7.31-3.93-4.94-16.64-12.03.69-3.98,15.9,7.39-5.73-8.95,19.69,5.78,19.17,11.12,1.11-2.04-4.48-5.49-15.1-9.3-30.1-18.77-45.14-28.15-19.51-9.97-34.38-17.74-55.54-24.4-13.56-4.27,13.66,2.82,14.22,2.98,16.81,4.66,33.45,10.73,49.77,16.9,19.54,8.13,31.02,11.02,49.93,22.3,4.01,2.4,24.16,15.06,7.68,3.49-2.16-1.5-19.53-13.9-5.33-7.66,19.44,8.56,6.88,1.78,7.21-3.04.36-5.22,25.36,7.61,27.92,9.08,25.26,14.46,38.49,27.45,58.83,47.09,40.15,38.79-4.67-12.67-15.43-22.19-13.74-12.17-29.38-19.77-43.65-30.57-10.65-8.05,5.59-1.34,9.53-.21-8.64-11.71,5.46-6.67-20.48-14.06-16.15-4.6-32.52-8.86-48.81-13.03-5.76-1.48-11.54-2.96-17.29-4.51-12.1-3.25-25.09-9.79-37.7-13.6-15.35-4.64-26.74-5.94-42.19-8.66-9.23-1.63-.14-2.33,3.72-2.79,70.37-7.94,123.75,16.44,185.36,46.13,7.33,3.53-24.27-14.92-28.3-17-12.7-6.55-25.27-11.74-38.68-16.63-17.92-6.47-2.89-3.64,4.41-1.21,7.18,1.97,18.05,3.91,3.36-1.76-3.25-1.25-6.2-2.33-9.54-3.34-9.18-2.48-17.42-4.86-26.74-7.01-1.24-.29-38.21-8.71-16.87-6.29,13.76,1.56,26.91,2.57,40.87,4.53-8.34-4.18-10.67-3.25-20.22-5.46-25.46-5.91-44.75-1.86-70.26-2.74,24.31-3.44,41.25-7.36,66.39-6.33,8.4.33,4.44-1.15-.8-3.17-15.33-5.94-24.75-7.42-41.15-5.85-27.87,2.68-55.11,15.21-82.27,22.11,22.39-17.36,80.82-26.57,109.71-31.41-110.07-5.9-167.68,62.13-185.36,63.76,6.85-10.23,40.16-31.73,52.64-37.99,30.3-15.21,61.12-19.76,93.4-28.48-19.42-2.37-60.34,2.5-9.66-9.66,38.28-9.19-30.39.53-34.73,1.41-86.3,17.32-111.9,42.62-145.41,122.56-5.85,13.96-9.15,24.03-.85-.74,30.74-91.68,49.34-98.51,138.17-129.53,40.42-14.11,7.87-9.06-10.94-4.19-49.39,12.74-77.25,25.76-108.19,66.52-5.11,6.74-34.22,49.99-13.66,15.93,16.31-27,18.84-29.23,40.93-51.24,31.51-31.42-1.86-5.89-13.7,4.54-30.44,26.83-26.25,31.23-42.12,64.54-5.02,10.54-15.48,27.37-6,2.9,21.06-54.35,42.85-85.25,97.37-109.63,18.72-8.36,38.71-14.77,58.13-21.35-10.02.49-54.14,14.15-65.22,19.1-34.23,15.3-39.59,19.66-66.02,46.37-46.35,46.85,8.59-43.57,10.55-49.24-2.6.85-25.3,38.54-28.01,43.81-15.16,29.45-18.79,53.51-26.77,84.72-4.34,16.97,4.62-51.37,5.15-54.28,6-33.07,16.77-58.41,33.15-87.54-23.69,30.36-21.47,37.04-36.78,69.24-23.12,48.63-.32-43.95-10.95-12.67-4.25,12.52-13.15,64.35-16.27,68.66-3.08-9.84.98-49.61,4.39-61.59.53-1.89,13.27-39.5,1.24-19.84-15.36,25.11-13.26,87.17-18.55,93.13-7.62-6.49-8.62-102.79-7.54-119.39.95-14.7,4.44-38.49,4.01-51.78-1.9,2.4-16.99,77.61-14.76,26.45.47-10.65,1.52-20.68,3.91-31.04,9.06-39.23,35.85-67.95,63.24-95.9,45.38-46.32,123.45-64.73,186.5-63.39-8.44-1.15-44.94,25.43-54.85,33.6-3.09,2.55-4.3,4.1-8.04,6.96-3.36,2.57-3.94,3.45-7.05,6.68-4.58,4.77-10.54,9.67-15.02,14.89-13.53,15.94-27.09,31.84-40.44,47.91,18.25-9.73,35.76-18.87,54.72-27.27,22.31-7.34,47.84-10.67,72.56-9.93l-15.1,2.71c-10.91,1.41-33.49,3.61-41.43,7.35,8.7-.39,16.25-2.67,24.13-3.84,57.44-8.58,99.76-5.33,150.34,26.71,9.71,6.16,23.3,14.53,32.21,21.4,28.5,22.8,51.99,51.22,72.73,81.04,2.16,3.1,2.66.61,1.11-3.01-6.31-14.65,23.14,32.89,23.32,32.9,3.68.32-7.89-20.51-8.17-21-14.7-24.24-41.49-56.74-61.26-77.56-9.47-9.89-19.25-19.12-29.9-27.74-9.59-7.71-18.62-14.89-29.86-21.31-36.44-20.82-62.54-27.05-110.75-26.82-43,.2-79.92,7.56-109.33,27.23,1.83-1.38,6.13-6.38,8.82-8.86,3.33-3.08,5.48-5.55,8.67-8.79,21.59-21.86,82.02-70.65,106.28-74.36,20.8-3.17,44.48,4.64,64.08,5.01-15.43-8.77-64.41-14.92-85.97-15.63-125.55,1.74-250.05,59.77-279.75,190.77-17.09,75.42-6.59,112.32,18.02,183.41,4.63,13.38-1.5,10.23-12.94,11.75-8.22,1.1-22.95,3.71-30.5,6.51-10.9,4.04-19.25,10.21-27.46,18.31-10.66,11.36-24.27,31.71-28.76,51.1,20.02-35.53,39.75-62.58,83.42-67.11,15.65-1.62,8.53,5.39,2.3,13.55-6.56,8.61-10.69,13.2-14.73,23.34-1.16,2.91-2.02,5.78-2.92,8.78,14.74-11,14.08-16.09,25.01-27.43,7.96-8.24,22.02-14.61,33.34-15.8,10.88-1.15-12.67,10.81-14.42,11.95-13.78,9.09-22.52,27.15-28.23,42.12-5.4,15.9,8.22-4.84,10.05-7.46,2.56-3.65,5-7.36,7.53-11.03,12.15-15.81,22.09-21.06,41.7-23.79,9.77-1.35,18.23-.58,27.42,3.09-9.41,2.79-19.47,2.25-30.05,5.68-19.76,6.68-39.04,19-46.83,39.4-3.61,9.46-.24,6.12,5.05.93,9.3-9.11,15.63-19.03,26.91-26.29,15.81-9.03,26.58-10.76,44.5-11.22-30.99,11-39.65,12.98-60.43,40.37-2.27,3-3.52,5.08-4.92,8.59,10.03-6.06,18.87-16.91,29.08-24.25,19.03-12.77,43.43-19.49,64.53-7.29-15.5.89-24.76,2.14-39.68,6.81,30.14-1.22,34.97-5.05,61.92,12.22,5.99,3.83-6.65-2.53-7.69-2.94-11.14-4.37-22.45-3.74-33.68-.11,6.05-.06,22.23-.58,27.14,1.74-13.07,1.39-24.73-.65-38.54,2.11-4.55.99-33.95,10.24-34.52,12.25,3.81.11,18.11-2.26,23.67-2.73,38.72-3.23,58.67,4.24,89.13,27.98,34.06,26.92,59.51,62.63,95.13,88.33,6.35,4.57,12.94,8.86,19.39,13.31,58.33,40.84,126.89,66.86,178.11,118.78,3.15,3.19,5.16,6.04,8.41,9.08,8.98,8.4,14.58,17.06,21.87,26.75,25.57,33.98,29.04,49.87,42.82,89.38,16.4,46.24,37.98,75.79,25,127.4-2.21,8.75-4.42,16.61-6,25.58-.94,5.76-.32,7.22-.47-1.28-.39-22.08-1.29-62.86-11.7-81.82.25,6.63,1.34,12.93,1.6,20.15.51,13.92,2.21,59.84-3.03,70.73-7.42,15.69-10.62,54.21-15.19,74.31-3.37,14.84-15.71,56.1-7.06,11.56,2.24-11.58,5.11-24.01,6.74-35.61,2.06-17.51,4.61-47.44.63-64.28-1.62-1.66-3.01,14.99-3.14,16.16-.12,1.06-11.69,99.89-14.47,74.27-.84-7.76,2.87-8.82-7.29-1.25-8.52,6.35-6.18-6.09-11.08,12.1-2.4,8.9-7-7.3-7.45-10-2.34-13.91-1.9-30.18-3.1-44.5-4.94-50.11-18.28-90.87-43-134.67-1.61-2.85-1.49-3.68-4.16-3.38,6.29,14.97,13.21,25.97,18.81,42.03,25.26,73.94,27.62,138,4.87,213.01-3.79,12.48-13.53,26.48-15.51,38.59,6.2,2.76,19.93-16.19,12.65,4.72-5.51,15.87-20.77,34.44-32.72,46.23l-1.57,1.54c-1.83,1.79-3.69,3.52-5.56,5.26-26.35,24.26,2,6.12,12.22-.01,6.17-3.71,12.29-7.39,18.56-10.95-18.28,13.68-34.81,28.58-52.03,43.49,13.78-3.21,28.53-10.95,42.36-15.61,29.75-8.68,59.46-15.52,89.61-22.49,7.1-1.94,42.47-13.02,46.5-6.69,4.73,7.45,13.99,37.73,18.81,48.79,13.29,29.2,34.44,44.4,66.96,45.08,6.07.13,15.01-1.36.02,1.77-23.08,4.82-45.74,7.8-66.49-6.44-9.87-6.77-17.54-16.15-24.71-25.6-10.61-14.18,3.15,8.41,4.47,10.58,29.56,42.2,58.47,52.67,108.75,54.33-9.72-10.07-20.12-12.94-32.38-18.8,18.13-5.65,36.73-13.97,48.17-29.93,4.34-6.06-2.24-2.73-6.36-1.46-23.54,7.27-43.34,15.57-65.05-2.67-20.13-16.9-6.67-22.8,12.09-30.96,18.25-7.71,31.5-9.49,46.7-23.89-24.78-4.28-30.75-5.12-54.65-14.65-45.78-18.25-18.98-4.36-26.08-2.58-10.72,2.68,40.92,24.36,44.64,25.6,11.5,3.81,8.46,2.38-3.86,3.74-19.66,2.18-16.98,8.02-30.83,15.9-10.84,6.17-12.74-6.79-17.66-15.83-3.09-5.65-5.13-8.92-4.82-15.53,14.47,4.12,22.61,11.05,38.24,9.74-11.49-8.86-33.16-13.31-39.05-18.92,8.19,1.57,38.09,12.2,9.78.24-8.85-3.74-12.93-5.76-19.43-13.02,33.81-21.79,50.6,3.83,76.14-5.37,12.07-4.35-16.37-1.82-18.9-1.89-8.99-.25-15.35-.97-22.55-6.68,7.59-8.2,27.08-14.55,38.77-24.16,17.46-14.33,21.55-18.74,44.09-10.08,11.54,4.68-4.16,6.72-7.66,7.72-12.55,3.58-15.07,3.94-28.08,4.39-20.22.71,7.2,15.63,29.64,5.52l3.97-1.79c11.97-6.32,20.37-13.51,26.52-25.7-13.45-.19-21.67-.14-34.43-5.32,4.56-6.63,14.05-14.64,20.11-20.49,15.59-16.23,26.74-31.64,39.14-50.28,5.55-8.36,10.88-16.81,15.99-25.44,35.28-60.81,49.81-104.4,66.67-172.02,11.61-46.58,18.34-69.71,47.85-108.68,19.25-25.41,30.63-48.21,40.63-78.37.65,18.88-8.03,47.33-10.56,67.62,7.2-5.15,25.71-33.76,31.7-42.75,41.01-61.95,65.05-123.58,66.42-198.72,1.36-74.36-8.11-155.18-38.37-223.7-32.43-71.12-86.18-135.01-142.11-189-22.53-21.58-45.18-39.74-67.39-62.45-44.88-46.05-85.99-95.26-143.04-127.15-4.91-2.74-10.03-2.97-14.91-6.11,7.6-3.44,16.07-9.7,21-16.49-3.19-2.2-39.44-6.3-45.68-7.41-13.16-2.35-24.9-5.27-37.58-9.48,14.49-3.36,17.41-3.85,29.66-10.83,8.72-4.96,13.18-1.88-3.21-6.23l-5.52-1.45c-5.24-1.56-9.88-3.46-14.86-5.12-40.41-12.88-74.1-20.21-116.77-18.31-22.21.99-29.42.41-51.32-3.72-18.25-3.45-44.85-6.2-63.35-5.58,28.81,9.95,51.41,9.61,81.37,23.47,18.88,8.74,48.02,24.93,60.44,41.74-13.7-6.71-19.43-11.89-35.23-17.35-7.89-2.72-39.68-12.62-46.62-10.27-4.16,1.41-.78.85,3.21,1.85,37.05,9.35,64.27,27.53,92.39,52.51,7.61,6.78,17.35,14.96,24.42,21.95-.17.29-31.16-14.84-32.89-15.61-15.04-6.75-55.37-24.96-71.13-21.36,49.53,18.48,106.6,71.31,137.76,113.52,8.7,11.78-18.49-18.11-20.27-19.63-3.94-3.36-7.25-4.94-12.11-6.55,3.17,10.96,22.64,33.76,30.05,44.84,5.69,8.79,11.05,17.81,16.46,26.78,7.13,11.79,13.95,27.22,18.73,40.99,4.53,13.62,10.38,32.23,11.74,46.34-6.79-13.41-13.58-26.83-20.37-40.25-.48,2.99.16,3.43,1.64,7.2,16.85,43.68,30.84,89.72,34.7,136.57-2.65-7.27-3.42-13.48-6.8-21.87-8.97-22.26-37.81-74.63-55.17-90.04-4-3.56,1.02,4.01,1.57,5,7.1,12.6,14.84,22.36,21.95,36.09,13.33,25.72,21.88,48.45,28.08,76.77,2.09,9.57,4.05,13.38,5.56,24.24,4.8,34.69,6.49,68.46,4.29,103.44-.33,4.88-1.48-3.22-1.71-4.42-4.7-23.79-4.94-44.13-12.53-67.93-2.2-6.8-24.49-71.67-26.66-64.06-.45,1.59,20.84,56.78,22.65,66.02,1.22,6.18,1.52,12.89,1.9,19.18.8,14.36,5.12,26.84,6.27,40.34.47,5.48-3.95-18.37-4.46-20.63-.19-.83-10.32-42.93-11.64-26.25-1.42,18.15-1.78,19.11,3.8,36.92,7.35,23.51,13.64,51.3,13.09,76.03-.69,23.33-5.6,68.52-8.79,10.46-1.53-28.07-.06-42.17-13.04-68.48,2.81,51.23,14.57,92.21,9.59,145.6-1.3,13.98-3.49,7.5-7.15-3.39-9-26.79-34.41-68.58-53.08-90.32-17.72-20.64-46.06-44.02-70.61-55.59-13.76-6.48,20.75,16.5,20.86,16.58,42.84,31.57,77.26,74.14,96.88,123.83,4.13,10.46,6.45,19.51,8.17,30.61-17.03-28.7-19.85-49.83-41.87-77.09-17.31-21.41-52.96-59.52-77.22-71.09,3.5,4,6.69,6.78,9.97,10.36-.54.14-14.94-7.72-15.67-8.1v.04ZM1045.1,2189.02l-18.25-16.68c-3.98-4.99-1.26-2.99-6.84-8.13l-4.1-4.66c-.17-.2-.41-.48-.58-.68l-7.53-9.95c-34.05-53.91-45.49-90.2-40.1-154.2,2.21-26.23-7.31,34.2-7.53,36.56-1.82,19.67,1.38,34.36,5.38,53.34,4.57,21.68-6.92-20.91-7.04-21.36-2.32-8.34-3.98-15.83-4.22-.93-.16,10.39-.79,14.64,1.81,24.87,5.99,23.54-10.77-17.5-11.33-19.78-8.59-34.78,9.48-65.99,22.96-96.68,9.01-20.5,21.82-45.17-2.96-5.76-26.22,41.68-39.18,74.16-42.29,123.73-.82,18.64-.15,37.38.21,56.03.09,4.93-.16,7.27-1.55,12.01-5.7-2.02-6.25-3.26-6.79,1.59-2.65-5.46-14.04-49.92-17.01-49.87-3.58.05,1.93,19.45,2.99,22.75,5.02,15.64-15.4-37.34-6.99,4.14,4.37,21.54,8.95,31.15-3.56,3.75-10.9-23.87-23.62-50.56-25.05-77.07-1.28-69.31,57.78-115.65,58.1-120.38.17-2.53-24.66,22.36-27.67,25.51-26.56,27.88-48.46,74.17-41.93,113.19,4.41,26.38,20.82,53.61,33.22,77.18,1.57,3,3.14,6.01,4.7,9.02,10.11,19.55-.93,5.86-8.47-1-14.02-12.08-28.84-22.25-43.11-34.92-26.26-23.31-50.31-51.6-53.71-88.19-2.72-36.86,15.87-72.46,37.29-101.19,13.92-18.67-15.28,15.04-17.39,18.03-22.37,31.64-29.91,71.59-34.69,109.29-2.1,17.7-8.51-19.81-8.79-23.19-1.38-39.23,3.49-67.85,32.49-95.04,2.38-2.23,5.62-4.82,6.47-8.1-63.36,30.93-79.85,77.62-87.99,143.87-1.24,10.34-3.5,3.72-5.06-2.74-11.56-48.11-5.52-38.46-.27-83.36,2.43-24.56-11.27,34.17-11.46,37.6-.62,11.18,4.24,47.55,1.61,53.85-2.65,6.37-9.81-73.55-13.51-81.91-8.66-19.55-22.04,22.29-28.13,23.73-10.21,2.42-25.54-30.85-28.29-39.96-14.62-51.74-9.69-109.86,26.63-151.81,5.22-5.88,9.17-9.42,15.39-14.2-38.34,23.51-59.25,73.78-57.64,117.66,2.51,30.87,11.2,59.37,14.85,89.36,2.02,16.53-3.66,4.1-7.46-2.61-15.14-27.59-17.32-50.08-25.79-79.07-1.88-6.44-2.79-3.7-4.38,1.37-6.12,19.49-8.75,30.09-9.81,50.61-.38,7.41-.93.87-2.05-2.45-14.15-41.79-23.15-72.51-2.97-114.98,12.37-26.01,29.69-40.3,49.23-60.02,7.69-7.76-27.46,20.2-30.26,22.72-24.35,21.92-45.01,52.06-52.64,84.17,19.27-24.25,11.38-24.46,12.15,12.8.6,29.37,8,48.86,21.47,74.48,5.39,9.89,11.72,19.93,21.4,26.08-8.49-31.87-10.63-36.92-5.5-70.32,1.4-9.13,2.41,7.1,3.09,9.96,6.69,28.17,23.72,70.37,47.09,88.43,12.72,9.82,1.49-11.93-.27-15.95-5.11-11.67-6.31-15.85-5.79-28.98,27.61,22.23,19.93,15.43,36.61-7.05,13.35-17.99,12.53,15.96,13.25,23.4,3.91,40.24,14.6,78.82,42.58,109.14-4.76-21.94-15.94-35.67-18.66-58.68,4.7,7.09,8.45,14.07,12.45,21.55,2.99-7.21.47-18.78,1.24-28.18,2.72-31.6,8.35-61.8,27.41-87.99,9.32-11.94,3.74,5.01,3.26,11.56-1.98,27.16,2.17,60.5,21.75,80.95,1.49,1.26,2.51,1.64,4.39,2.05.32-10.34-.65-20.26-.32-30.54,10.74,19.11,12.23,27.17,27.29,45.59,32.94,36.92,75.52,66.43,113.2,98.9,3.56,3.07,5.91,4.9,10.23,6.87-4.7-13.77-11.57-24.94-14.36-39.37,4.86,4.7,5.82,6.38,12.29,9.12,7.87-36.99,2-71.81,7.44-107,1.34-8.67,4.57.12,8.1,5.61,9.93,15.46,15.69,28.13,28.08,42.51,7.75-13.84-3.25-29.03,13.88,3.44,7.09,13.43,13.55,22.85,23.28,34.56,49.78,53.01,92.83,66.7,148.04,106.74,17.32,12.56,25.6,22.2,36.2,40.69,11.73-11.44,8.8-16.68,26.63-28.78,12.11-8.22,25.79-14.76,39.13-20.77l2.19-.97c34.05-14.89,104.31-49.79,132.1-75.17,31.62-29.28,41.96-43.93,51.91-85.96,1.49-6.34.34-7.6,5.12-.14,16.79,27.39,21.61,72.47,22.12,104.28.09,5.34,2.32,1.66,6.66-2.41,38.8-37.69,63.53-92.14,57.92-146.88-.7-6.86-2.08-8.71-3.09-1.04-3.79,28.92-6.96,49.86-18.08,77.33-8.34,20.59-18.74,37.46-34.1,53.57-.43.44-.86.79-1.35,1.16-1.13-52.53-5.47-62.36-28.72-108.76-11.75-23.42-16.79-43.08-25.75-66.99-9.65-25.78.85,27.13,1.54,30.02,8.76,36.67,14.34,54.57-4.01,91.31-11.77,23.59-29.18,40.22-49.88,55.97-23.7,17.62-54.67,33.03-83.59,47.41-32.08,15.39-58.37,24.8-86.21,48.33-15.52,12.32-11.35.45-19.73-14.85-14.65-26.74-28.41-45.31-39.45-75.03-11.46-31.19-16.29-54.54-21.74-87.03.05,55.65,25.82,108.43,49.66,157.27,10.39,21.28-27.66-44.63-28.27-45.65-15.25-25.39,6.59,19.61,8.32,22.82,10.48,19.54,9.76,18.2-4.93.43-21.1-25.63-38.61-49.98-56.44-77.96-10.84-17.01-.48,6,2.1,10.44,12.61,21.73,28.09,41.68,43.2,61.71,3.31,4.39,9.22,11.99,11.17,17.01-9.32-2.45-24.46-13.84-33.54-19.53-22.79-14.28-44.7-28.63-66.16-44.89l-2.13-1.63h0ZM1501.13,207.09c6.55,5.63,12.57,11.44,19.83,16.17-54.4-26.76-150.41-18.81-203.82,7.96,12.58-2.39,27.33-8.28,40.63-11.5,46.86-11.04,100.82-10.5,146.29,6.21,25.84,9.86,44.68,25.06,66.01,42.06-28.52-4.15-47.94-9.84-77.87-10.71-19.78-.58-29.5-1.53-49.64,1.76-20.66,3.54-40.61,8.08-59.84,16.51-2.95,1.3-5.56,2.35-8.59,3.45l6.87-.84c52.97-18.81,104.98-20.19,159.16-5.59,37.11,10,73.55,11.95,110.09,22.23.75.21,30.66,9.5,14.87,6.26-28.52-5.86-73.62-22.42-101.72-13.6,15.19,5.91,58.11,10.06,66.56,15.77-.97,1.72-50.78-8.38-22.44-1.68,34.04,8.04,69.3,8.93,103.6,15.27,14.17,2.62-4.35,1.76-8.67,1.9-14.94.41-32.37.11-46.57,4.83,7.13.53,14.2.8,21.32,1.43-21.73,8.35-8.24,5.11,6.81,4.47,21.21-.89,42.44-1.54,63.64-2.3-12.65-9.64-80.11-30.83-100.36-37.95-46.74-16.4-52.86-7.87-92.86-46.11-9.53-9.11-18.59-18.59-28.27-27.56-2.78-2.5-4.74-5.19-7.55-7.39-10.65-8.34-20.21-16.75-32.65-24.8-12-7.77-23.09-14.94-36.97-21.69-66.2-30.37-126.09-32.48-196.48-16.48-30.07,6.84-55.27,8.22-85.72,17.49-32.46,9.89-64.33,20.44-98.18,10.56-18.78-5.48-9.95,4.9-24.99,12.67-12.17,6.29-30.29-2.58-44.85-4.24-40.81-4.65-70.14,10.33-108.28,20.14-15.44,3.98,16.91,7.86,16.99,7.93,1.94,1.61-64.2,22.66-71.58,25.56-6.47,2.55-70.64,31.17-70.13,33.08.86,3.25,40.11-5.83,44.83-6.59,75.01-12.13,134.26-6.69,198.17,37.29,3.11,2.14,6.12,4.42,9.16,6.67,12.64,9.31-7.02-8.67-8.23-9.62-36.95-29.12-88.86-50.02-136.2-49.64-16.22.13-31.8,1.88-47.92,3.2,62.87-30.07,135.95-52.59,198.07-8.06,14.44,10.35,31.4,24.16,4.81-.93-29.01-27.36-70.78-36.34-109.58-35.52,11.58-7.7,53.3-15.93,67.92-15.26,22.46,1.03,42.51,7.57,65.97,7.54,8.64-.01,14.48.09,23.04.58,5.31.31,10.34-4.37,12.41-8.96-6.63-2.68-34.02,8.33-34.89-4.08-.45-6.5,6.13-9.07,12.11-7.56,20.58,5.17,14.02,3.72,33.96,4.01,14.35.21,9.16-.17,6.81,9.93-1.75,7.5-6.18,8.48-10.45,14.6,11.18-3.64,25.41-20.61,44.4-25.96,4.36-1.22,8.66-2.06,13.09-2.91-14.23,9.98-27.62,18.81-35.59,34.86,11.86-8.16,3.89-.4-.84,6.59-5.75,8.52-9.49,15.62-13.47,25.05,31.71-48.53,56.92-66.5,111.6-84.82,19.25-6.44-15.02,7.3-16.37,7.97-18.81,9.27-46.39,24.85-51.99,46.28-5.17,19.79-8.17,19.36-16.61,35.91-2.05,4.03-5.65,14.52.13,3.73,19.69-36.76,55.08-71.69,93.67-88.05,38.4-16.29,87.77-19.37,129.16-17.96,24.42.83,70.11,11.25,91.23,23.53-16.78-3.65-8.83-4.2-28.28-4.38-3.08-.03-41.62.29-42.08,3.12-.35,2.09,3.18,1.15,5.55,1.01,34.33-2.02-13.56,4.99-19.3,5.99-26.14,4.57-35.43,7.5-59.63,18.1,4.87.37,25.58-7.67,32.94-9.65,52.61-14.13,110.33-14,157.87,15.67,3.6,2.24,6.57,4.4,9.88,7.04h-.01ZM1545.1,1909.45c-17.83-7.96-39.06-14.45-58.72-14.55,2.3,2.34,21.77,8.02,26.38,9.85,27.11,10.79,70.6,37.64,79.58,67.29,4.41,24.13-.24,49.94-12.1,71.39-5.97,10.8-3.62-3.73-3.21-7.63,3.1-29.48-8.71-58.48-24.02-83.11-1.22-1.85-1.24-1.73-3.02-1.09,13.41,33.14,17.14,52.72,15.08,88.87-1.24,21.95-5.86,40.08-13.93,60.45-.55-2.04-11.79-56.69-11.45-27.38.06,6.07,3.31,46.74,5.23,49.9,1.42,2.34,3.15-2.45,4.33-4.43,29.74-48.85,45.78-69.65,54.98-128.18,2.76-17.49,4.06-5.15,5.52,3.56,5.22,31.28-.26,25.86-4.72,52.29-3.48,20.61,4.26,15.15,17.7,6.6,3.89-2.48,29.55-21.51,32.8-18.21,5.69,5.77-26.45,51.12-32.71,58.94-2.5,3.11-5.04,6.18-7.6,9.23-3.01,3.3-5.7,5.98-7.59,10.07,21.31-2.29,45.33-15.65,60.01-25.03,48.96-32.23,85.83-82.87,91.01-142.33.46-5.32.89-10.63,1.41-15.95,13.58,25.33,6.54,70.29,4.5,98.55,24.66-37.71,12.96-107.39-10.92-143.23-9.4-13.65-26.46-26.44-39.19-37.47-19.03-16.48,7.16,9.83,9.9,13.12,46.59,55.63,28.12,120.19-12.85,172.44-14.96,18.25-32.02,33.52-51.41,46.92-8.13,5.29-16.2,10.11-24.7,14.8,46.54-67.54,57.38-116.76,17.79-191.47,6.12,25.28,16.67,34.37,17.8,64.74.66,17.66-2.46,33.89-13.59,48-15.14,17.94-4.96-23.68-4.83-28.64.08-3.37-.33-6.09-.85-9.4-6.79,12.99-11.16,37.22-18.92,46.58-6.28,6.36-11.27-10.07-11.96-14.12-2.98-17.53.91-23.86-9.1-42.12l-1.96-3.57c-12.55-21.51-33.73-38.8-55.24-50.85-3.11-1.71-6.21-3.27-9.4-4.83ZM1973.17,896.24c2.22,51.69-3.24,103.16-.24,155.04,2.04,33.1,6.99-44.12,7.3-47.69,2.8-33.79,1.94-65.19,2.76-98.73.16-6.32.5-11.45,1.64-17.69,2.24,1.33,2.16,3.08,1.87-2.02-5.33-89.16-13.48-90.55-52.41-167.27-23.37-46.06-22.85-89.28-37.41-136.93-6.75-21.61,4.05,28.69,4.2,29.43,1.08,5.83,10.61,55.44,10.43,56.68-.21,1.38-.79,2.35-1.46,3.54-6.63-20.61-9.32-45.31-13.19-66.84-14.32-73.84-28.68-96.71-89.97-140.73-20.62-14.81-37.85-24.6-4.5.64,27.06,20.48,37.39,28.66,56.23,58,11.6,18.32,19.69,36.92,26.61,57.41,7.16,23.84,7.9,45.84,10.16,70.31-3.66.13-3.19-2.14-1.18,8.96,12.08,66.71,56.94,120.54,72.75,188.7,3.73,16.57,5.6,32.24,6.42,49.18ZM1935.26,1885.32c2.22-1.33,1.02-.53,2.41-2.03-55.34-.48-72.55-11.45-97.2-61.21-2.9-5.88,4.53,2.37,9.05,4.89,10.76,5.77,19.88,9.35,32.25,7.26-13.53-11.81-35.41-12.6-54.7-30.96-9.1-9.25-10.55-14.78-1.69,1.89,7.9,14.85,14.87,31.28,22.71,45.47,9.96,18,20.24,26.25,38.19,35.8l2.8,1.49c-12.55-.3-54.21-3.25-63.13-9.98-17.3-14.5-23.67-39.18-32.97-58.92-7.67-16.28,3.51,19.24,3.54,19.35,3.22,9.46,6.98,20.21,11.03,29.34,7.44,15.82,15.89,26.42,29.06,37.88,9.97,8.46,17,11.59,27.18,18.37,6.79,4.52-5,2.4-7.75,2.22-24.48-1.04-28.34-1.72-47.23-17.23-5.69-4.68-2.23,8.23-1.85,11.82,1.32,12.57,3.12,23.61,3.3,36.4-3.58-23.35-23.71-64.54-46.07-74.01-11.86-5.03,13.84,17.54,14.83,18.52,19.39,19.18,28.04,49.58,26.14,76.31-.6,6.63-1.74,12.18-3.44,18.59-2.25,7.03-5.27,12.3,2.22,3.57,16.27-20.72,17.32-35.1,19.52-60.18.96-10.92,8.47-6,17.5-5.18,19.64,1.78,47.03,1.28,60.52-15.37-24.74,2.03-37.77-7.5-56.05-22.67-2.88-2.41-4.3-3.6-5.33-7.33,26.29,4.76,25.3,10.22,54.99,6.66,14.3-1.9,26.6-6.25,40.18-10.74h-.01ZM521.78,1809.58c-14.27,22.02-27.08,24.19-52.1,23.33-21.62-1.18-41.56-8.55-59.71-20.13-6.56-4.44-11.22-7.8-18.5-11.25,6.33,15.03,38.14,39.52,54.69,39.79-10.87.91-22.36,1.09-31.06,8.34,28.32.34,62.43-4.56,88.5-15.83,10.39-4.07.49,5.08-2.36,8.28-26.84,30.1-31.95,29.93-66.28,48.64-8.5,4.69-2.97,5.14,4.55,6.29,21.37,1.77,27.82-3.34,46.95-4.71-13.06,17.17-29.48,26.35-46.07,39.41-15.84,12.88,10.09,1.25,15.48-2.6,23.49-17.78,44.54-37.92,68.23-56,9.66-7.38,28.37-23.42,38.31-28.06-2.89,10.05-38.52,47.77-47.87,56.91-2.31,2.23-25.1,23.1-24.75,24.31,7.44-2.01,28.47-16.03,33.94-21.91,15.25-16.59,30.7-35.35,45.58-52.56,11.54-13.35,25.99-29.5,36.38-43.44,6.59-8.85-19.96,19.13-20.05,19.22-18.36,17.84,1.58-7.56,5.19-11.7,6.93-7.94,24.38-25.41,2.59-6.94-50.13,42.5-56.22,57.74-122.89,76.6-16.88,4.62,3.68-5.26,7.8-8.16,29.95-23.45,41.9-49.22,53.61-84.79-1.25-.29-9.03,14.83-10.17,16.97h0ZM2004.08,763.41c1.22,5.59,4.66,15.88.98,20.83-3.49,4.66-1.02,6.38,1.81,12.75,16.48,36.98,28.78,64.9,39.3,104.47,12.43,46.73-4.66-35.85-6.06-40.96-10.23-37.22-23.65-71.75-30.85-110.04-8.61-52.72-7.89-98.48-22.59-151.41-14.44-52.01-30.32-77.93-71.01-114.24-14.9-13.17-45.29-37.68-63.05-45.05,56.37,38.65,99.54,80.03,119.5,147.53,1.92,7.37,5.24,10.81,7.58,18.71,13.91,46.96,15.62,107.6,24.4,157.41h-.01ZM339.87,1130.92c46.98-76.32,81.61-145.17,88.62-236.38,3.79-49.35-48.48,121.54-48.73,122.39-19.08,63.52-42.36,78.92-69.06,135.25-8.1,17.1-11.48,29.48-14.5,48.05,17.29-18.77,29.85-46.99,43.66-69.31ZM1982.55,1685.63c-25-.55-28.27,5.08-55.56-2.34-36.61-9.95-11.88,6.36,5.23,11.55,13.94,4.22,12.35,4.39-3.93,8.89-31.52,8.71-27.64,2.13-55.2-.45-27.23-2.55,15.68,12.94,20.81,14.01,24.2,5.03,47.8-5.87,68.96-16.37,6.07-3.03,17.06-9.2,20.8-14.75l-1.11-.55h0ZM382.2,1115.92c24.87-47.81,51.84-92.41,50.52-148.94-1.1-47.06-25.91,72.6-28.17,79.37-5.11,15.33-40.95,100.77-41.25,104.77,6.62-9.65,13.33-24.38,18.9-35.21ZM773.73,1213.88c6.94-1.9,54.12-27.44,64.09-32.8,19.94-10.73,42.24-23.6,59.21-35.64,4.61-3.27,103.41-81.85,105.93-85.95-8.02,2.77-33.85,22.96-43.25,30.02-4.88,3.67-8.62,5.63-14.2,9.55-18.81,13.24-35.38,27.83-54.33,40.51-19.43,13-37.04,26.06-57.42,38.66-12.29,7.59-56.06,30.77-60.04,35.65ZM1431.79,1056.73c-9.66-9.91-41.95-44.98-54.44-47.15,22.27,12.37,48.06,49.88,68.31,68.99,33.56,31.69,58.58,49.41,98.74,72,13.34,7.52,34.01,19.25,48.17,23.79-22.47-14.33-44.87-26.4-67.05-41.64-24.39-16.78-44.74-31.33-67.13-50.94-9.23-8.08-18-16.3-26.6-25.05ZM399.78,1777.14c-.03,9.48,91.45-6.52,71.75-9.12-11.66-1.54-60.81-6.34-64.01-21.51-1.17-5.52,21.35-4.78.89-8.95-24.43-4.97-16.64,9.02-2.61,18.67,34.12,23.49,21.69,8.49-6.02,20.9ZM966.14,487.22c1.41.77,35.57,20.39,32.95,11.04-2.61-9.3-50.83-31.19-63.05-36.03-3.39-1.34-45.75-17.06-44.46-11.18.23,1.05,31.63,14.69,36.49,17,12.85,6.12,25.55,12.4,38.07,19.17h0ZM758.09,1234.28c7.03-1.45,34.72-16.43,42.6-20.43,26.1-13.22,104.04-58.48,113.33-74.07l-78.81,47.4c-18.14,10.83-64.48,36.44-77.12,47.1ZM1602.46,1218.7c10.15,7.41,27.2,19.16,38.69,24.39-5.5-5.01-11.46-9.63-17.7-14.31-6.67-5-12.57-9.02-18.52-13.92-20.75-15.81-41.16-31.14-62.24-46.53-6.04-4.42-43.64-34.37-47.4-34.33.23,3.4,48.75,40.84,56.38,46.53,16.97,12.69,33.87,25.41,50.78,38.18ZM720.37,857.04c13.24-10.18,25.09-19.01,38.97-28.38,16.91-11.42,11.37-11.91-3.95-3.25-30.36,17.17-61.68,42.2-87.44,65.74-17.57,16.05,35.88-21.78,36.09-21.94,5.52-3.97,10.93-8.04,16.33-12.17ZM1307.4,1248.71c-3.45-3.65-9.74-5.37-16.3-8.35-5.18-2.35-10.06-4.7-14.84-7.56-34.73-21.12-45.64-38.68-57.94-77.1-2.54,10.41,13.07,40.42,19.81,49.26,16.76,22,42.35,37.81,69.27,43.75ZM978.94,997.48c6.1-1.72,12.06-5.1,18.33-7.48,6.38-2.42,12.11-4.6,17.9-7.11l33.24-16.03c.16-.45.58-.42.85-.65-21.26,1.17-38.47,10.16-55.92,20.94-10.76,6.65-11.72,4.15-14.4,10.34ZM1861.61,1840.39c-26.25-20.88.67,9.41,14.07,16.42,8.42,4.26,13.47,6.2,23,6.82-1.46-3.17-27-15.78-32.3-19.71l-4.77-3.53h0"/>
</svg>